<svg id="Layer_1" data-name="Layer 1" xmlns="http://www.w3.org/2000/svg" viewBox="0 0 309.9 295.2"><defs><style>.cls-1{fill:#fefefe;stroke:#fefefe;stroke-miterlimit:10;stroke-width:4px;}</style></defs><path class="cls-1" d="M236.4,45.4h1.1a11,11,0,0,1,10.8,11,5,5,0,1,0,9.9,0,21.1,21.1,0,0,0-16.5-20.5V31.2a5,5,0,1,0-9.9,0v5a20.9,20.9,0,0,0,5.4,41.2,11.1,11.1,0,1,1-11,11.1,5,5,0,1,0-9.9,0,21,21,0,0,0,15.5,20.3v5.4a5,5,0,0,0,9.9,0V109a21,21,0,0,0-4.5-41.5,11.1,11.1,0,0,1-.8-22.1Z" transform="translate(0 0)"/><path class="cls-1" d="M237.5,2C207,2,181,21.9,171.3,48.5H48.3a5.2,5.2,0,0,0-5,5.2L42.1,227.6H7.1A4.8,4.8,0,0,0,2,232.3v22a38.9,38.9,0,0,0,37.2,38.8H194.8a38.9,38.9,0,0,0,38.9-38.9V142.7l3.8.2A70.5,70.5,0,0,0,237.5,2ZM41.1,283.3H41a29.2,29.2,0,0,1-29.1-29V237.5H155.6v16.7a39.1,39.1,0,0,0,11.5,27.6c.5.5,1.2.9,1.7,1.5Zm182.7-29a29,29,0,0,1-29,29h-.1a29.2,29.2,0,0,1-29.2-29.1V232.3a4.5,4.5,0,0,0-4.7-4.7H52.1L53.2,58.4H168.5a72.1,72.1,0,0,0,4.6,42.2H126.3a5,5,0,0,0,0,9.9h52.2a70,70,0,0,0,45.3,31V254.3Zm13.7-121.4A60.5,60.5,0,1,1,298,72.5,60.3,60.3,0,0,1,237.5,132.9Z" transform="translate(0 0)"/><path class="cls-1" d="M94.5,133.5a15.4,15.4,0,1,0,15.9,15.4A15.6,15.6,0,0,0,94.5,133.5Zm0,20.9a5.7,5.7,0,0,1-5.9-5.5,5.6,5.6,0,0,1,5.9-5.4c3.3,0,6,2.4,6,5.4A5.8,5.8,0,0,1,94.5,154.4Z" transform="translate(0 0)"/><path class="cls-1" d="M121.4,148.9a4.9,4.9,0,0,0,4.9,4.9h66.1a5,5,0,1,0,0-9.9H126.3A4.9,4.9,0,0,0,121.4,148.9Z" transform="translate(0 0)"/><path class="cls-1" d="M94.5,90.5c-8.7,0-15.8,6.9-15.8,15.3a15.9,15.9,0,0,0,31.7,0C110.4,97.4,103.3,90.5,94.5,90.5Zm0,20.8a5.7,5.7,0,0,1-5.9-5.5,5.6,5.6,0,0,1,5.9-5.4c3.3,0,6,2.4,6,5.4a5.8,5.8,0,0,1-6,5.5Z" transform="translate(0 0)"/><path class="cls-1" d="M94.5,176.6A15.6,15.6,0,0,0,78.7,192c0,8.4,7.1,15.3,15.8,15.3s15.9-6.9,15.9-15.3A15.6,15.6,0,0,0,94.5,176.6Zm0,20.8a5.6,5.6,0,0,1-5.9-5.4,5.7,5.7,0,0,1,5.9-5.5,5.8,5.8,0,0,1,6,5.5C100.5,195,97.8,197.4,94.5,197.4Z" transform="translate(0 0)"/><path class="cls-1" d="M192.4,187.3H126.3a5,5,0,0,0,0,9.9h66.1a5,5,0,1,0,0-9.9Z" transform="translate(0 0)"/></svg>