<?xml version="1.0" encoding="UTF-8"?>
<!DOCTYPE svg PUBLIC "-//W3C//DTD SVG 1.1//EN" "http://www.w3.org/Graphics/SVG/1.1/DTD/svg11.dtd">
<!-- Creator: CorelDRAW 2021 (64-Bit) -->
<svg xmlns="http://www.w3.org/2000/svg" xml:space="preserve" width="2.9325in" height="1.20752in" version="1.1" style="shape-rendering:geometricPrecision; text-rendering:geometricPrecision; image-rendering:optimizeQuality; fill-rule:evenodd; clip-rule:evenodd"
viewBox="0 0 2932.5 1207.52"
 xmlns:xlink="http://www.w3.org/1999/xlink"
 xmlns:xodm="http://www.corel.com/coreldraw/odm/2003">
 <defs>
  <style type="text/css">
   <![CDATA[
    .fil0 {fill:white;fill-rule:nonzero}
   ]]>
  </style>
 </defs>
 <g id="Layer_x0020_1">
  <metadata id="CorelCorpID_0Corel-Layer"/>
  <g id="_2740672137424">
   <g>
    <path class="fil0" d="M2561.53 1072.86c76.78,-72.8 142.18,-157.48 197.27,-255.06 43.92,-77.81 104.11,-153.89 173.7,-221.76l0 -25.15c-80.45,76.12 -150.1,162.66 -200.15,251.31 -94.34,167.11 -221.2,293.57 -386.84,385.29l39.52 0c64.55,-39.39 123.26,-84.16 176.5,-134.64z"/>
    <path class="fil0" d="M2932.5 751.63c-44.27,51.58 -83.04,105.99 -114.22,161.22 -66.44,117.71 -149.03,215.24 -249.91,294.65l29.56 0c17,-14.16 33.51,-28.81 49.52,-43.98 76.78,-72.8 142.18,-157.49 197.28,-255.08 24.57,-43.53 54.23,-86.52 87.78,-127.83l0 -28.98 0 0.01z"/>
    <path class="fil0" d="M2932.5 956.8c-10.01,15.46 -19.46,31.04 -28.29,46.69 -43.06,76.3 -92.9,144.11 -150.11,204.02l25.42 0c57.23,-61.7 107.43,-131 151.13,-208.43l1.85 -3.24 0 -39.04 0 0z"/>
   </g>
   <g>
    <path class="fil0" d="M1237.9 1207.51c-28.11,-43.52 -52.69,-88.46 -72.77,-133.68 -3.91,-8.74 -12.78,-17.35 -19.85,-19.19 -7.08,-1.85 -9.68,3.74 -5.79,12.49 21.07,47.46 46.76,94.62 76.12,140.38l22.29 0 0 -0z"/>
    <path class="fil0" d="M1234.4 985.96c33.81,76.15 79.53,151.54 133.17,221.55l23.02 0c-52.76,-67.57 -97.68,-140.83 -130.55,-214.85 -3.9,-8.75 -12.78,-17.35 -19.86,-19.2 -7.08,-1.84 -9.67,3.76 -5.78,12.51l-0.01 0z"/>
    <path class="fil0" d="M1329.31 904.78c47.36,106.62 118.04,211.78 201.15,302.73l24.82 0c-82.99,-87.82 -153.74,-191.15 -200.31,-296.04 -3.91,-8.74 -12.78,-17.35 -19.87,-19.2 -7.07,-1.85 -9.67,3.75 -5.79,12.5l0 0z"/>
   </g>
   <g>
    <path class="fil0" d="M2106.53 67.87c22.74,-21.57 44.5,-44.18 65.27,-67.86l-24.92 0c-83.04,92.39 -182.43,166.94 -300.17,225.5 -8.53,4.24 -16.72,13.54 -18.31,20.76 -1.59,7.21 4.03,9.62 12.55,5.39 100.64,-50.08 188.78,-110.98 265.57,-183.79z"/>
    <path class="fil0" d="M2305.04 0.01c-95.72,135.54 -218.36,239.51 -372.4,316.13 -8.53,4.23 -16.71,13.52 -18.3,20.75 -1.6,7.22 4.02,9.63 12.54,5.4 100.63,-50.07 188.78,-110.97 265.57,-183.77 50.25,-47.65 95.63,-100.39 136.43,-158.51l-23.84 0 0 0z"/>
    <path class="fil0" d="M2448.34 0.01c-102.39,180.78 -242.96,313.86 -429.76,406.76 -8.53,4.24 -16.71,13.54 -18.3,20.76 -1.6,7.22 4.03,9.63 12.54,5.4 100.64,-50.07 188.81,-110.98 265.58,-183.78 75.21,-71.32 139.52,-154.05 193.87,-249.13l-23.94 0 0 -0.01z"/>
   </g>
   <g>
    <path class="fil0" d="M61.53 55.36c18.71,-17.74 36.74,-36.19 54.12,-55.35l-25.22 0c-28.28,30.37 -58.4,58.76 -90.44,85.22l0 23.98c21.27,-17.17 41.78,-35.11 61.53,-53.83l0 -0.01z"/>
    <path class="fil0" d="M251.08 0.01c-69.41,95.2 -152.57,174.44 -251.08,239.23l0 23.07c53.23,-34.8 102.31,-73.48 147.46,-116.28 46.62,-44.2 89.05,-92.8 127.53,-146.01l-23.89 0 -0.01 -0.01z"/>
    <path class="fil0" d="M396.16 0.01c-96.78,165.9 -226.68,290.78 -396.16,380.69l0 23.11c87.37,-46.76 164.93,-102.24 233.39,-167.18 71.91,-68.17 133.83,-146.78 186.63,-236.63l-23.88 0 0.01 0.01z"/>
   </g>
  </g>
 </g>
</svg>
