<svg id="Layer_1" data-name="Layer 1" xmlns="http://www.w3.org/2000/svg" viewBox="0 0 439.7 439.7"><defs><style>.cls-1{fill:#bd0707;}</style></defs><path class="cls-1" d="M417.8,103.6,336,21.8a18.9,18.9,0,0,0-13.4-5.5,19.3,19.3,0,0,0-13.4,5.5l-81.8,81.8h0L70.5,260.6a19.3,19.3,0,0,0-5.6,12.8l-2.5,84.4a18.8,18.8,0,0,0,5.5,14,19.3,19.3,0,0,0,13.4,5.5h.6l84.4-2.6a18.7,18.7,0,0,0,12.8-5.5L417.8,130.5a19.1,19.1,0,0,0,0-26.9ZM322.6,172l-54.9-54.9,54.9-55,55,54.9Zm-165,165-56.7,1.8,1.7-56.7L240.8,143.9l55,54.9L157.6,337Z" transform="translate(0 0)"/><path class="cls-1" d="M416.1,196.2a23.6,23.6,0,0,0-23.6,23.6V392.5H47.2V47.2H219.8a23.6,23.6,0,0,0,0-47.2H23.6A23.6,23.6,0,0,0,0,23.6V416.1a23.6,23.6,0,0,0,23.6,23.6H416.1a23.6,23.6,0,0,0,23.6-23.6V219.8a23.6,23.6,0,0,0-23.6-23.6Z" transform="translate(0 0)"/></svg>