<svg id="Layer_1" data-name="Layer 1" xmlns="http://www.w3.org/2000/svg" viewBox="0 0 120 120"><defs><style>.cls-1,.cls-2{fill:#bd0707;}.cls-1{fill-rule:evenodd;}</style></defs><path class="cls-1" d="M22.4,62a83.1,83.1,0,0,0,21,2v5.9a83,83,0,0,1-21-1.9Zm54.2.1a83,83,0,0,1,21,1.9v6a83.1,83.1,0,0,0-21-2Z" transform="translate(0)"/><path class="cls-1" d="M22.4,50a83.1,83.1,0,0,0,21,2v5.9a83,83,0,0,1-21-1.9Zm54.2.1a83,83,0,0,1,21,1.9v6a83.1,83.1,0,0,0-21-2Z" transform="translate(0)"/><path class="cls-2" d="M56.2,87.8a11.5,11.5,0,0,1-7.4-4.7,15.6,15.6,0,0,1-2.6-9.2V70H55v4.5c0,3.4,1.5,5.1,4.7,5.1s4.8-1.8,4.8-5.3a10.7,10.7,0,0,0-1.6-5.9,26.3,26.3,0,0,0-6.3-6.2,34.8,34.8,0,0,1-7.9-8.3,17.2,17.2,0,0,1-2.2-8.8,15.9,15.9,0,0,1,2.4-9,11.5,11.5,0,0,1,7.3-4.6V26.3h7.6v5.2a11.3,11.3,0,0,1,7.4,4.6c1.7,2.3,2.5,5.4,2.5,9.2V47H65V44.7c0-3.5-1.6-5.2-4.7-5.2s-4.6,1.7-4.6,5a10.2,10.2,0,0,0,1.7,5.6,29.6,29.6,0,0,0,6.2,6.2c3.8,3,6.4,5.8,7.9,8.5a17.6,17.6,0,0,1,2.3,8.9,16.1,16.1,0,0,1-2.6,9.4,11.9,11.9,0,0,1-7.4,4.7v5.9H56.2V87.8Z" transform="translate(0)"/><path class="cls-1" d="M60,0,38.8,8.8,17.6,17.6,8.8,38.8,0,60,8.8,81.2l8.8,21.2,21.2,8.8L60,120l21.2-8.8,21.2-8.8,8.8-21.2L120,60l-8.8-21.2-8.8-21.2L81.2,8.8Zm0,6,19.1,7.9,19.1,7.9,7.9,19.1L114,60l-7.9,19.1L98.2,98.2l-19.1,7.9L60,114l-19.1-7.9L21.8,98.2,13.9,79.1,6,60l7.9-19.1,7.9-19.1,19.1-7.9Z" transform="translate(0)"/></svg>