<svg id="Layer_1" data-name="Layer 1" xmlns="http://www.w3.org/2000/svg" viewBox="0 0 612.04 608.44"><defs><style>.cls-1{fill:#ba1e24;}.cls-1,.cls-2,.cls-3{fill-rule:evenodd;}.cls-2{fill:#fff;}.cls-3{fill:#000002;}</style></defs><path class="cls-1" d="M289.57,92.19A306.31,306.31,0,0,0,34,256.51C4.75,312.38-5.84,376.65,3.29,439.82c16.43,113.56,96.76,208.87,206.31,245,23,7.67,46,12,71.2,14.6,12.42,1.1,38.35,1.1,50.76,0a296.8,296.8,0,0,0,71.21-14.6A304.49,304.49,0,0,0,596.66,300c-30.3-90.55-102.61-162.49-193.89-192.8a321.6,321.6,0,0,0-113.2-15Zm43.09,2.92c26.29,2.56,47.83,6.94,71.57,15A303.19,303.19,0,0,1,607.62,357.29c1.82,15.34,2.19,20.82,2.19,38.71s-.37,23.74-2.19,38.71c-9.5,75.22-48.2,144.6-107.72,193.89-70.11,57.7-163.23,81.07-253.42,63.18A304.7,304.7,0,0,1,45.28,550.1c-24.1-38.71-38-82.53-42.36-129.27-.73-9.13-1.09-31-.36-41.26C7.3,298.5,42.36,225.47,103,171.43a300.18,300.18,0,0,1,164-74.86c7.3-.73,11.68-1.46,24.46-2.19,5.48-.36,34.33,0,41.27.73Z" transform="translate(-0.1 -91.83)"/><path class="cls-2" d="M103,171.43C42.36,225.47,7.3,298.5,2.56,379.57c-.73,9.86-.37,32.13.36,41.26,4.38,47.11,18.26,90.56,41.63,129.63a302.29,302.29,0,0,0,201.2,141.68C335.94,710,429.06,686.66,499.17,629c59.88-49.3,98.22-118.68,107.72-193.9,1.82-15.33,2.19-20.81,2.19-38.7s-.37-23.74-2.19-38.71A300.29,300.29,0,0,0,539,203.2c-35.42-43.46-82.16-75.22-135.11-93.12-23.37-8-45.28-12.41-71.57-15-6.94-.73-35.78-1.09-41.26-.73-12.78.73-17.16,1.46-24.47,2.19-60.25,7.31-118.31,34-163.59,74.86Z" transform="translate(-0.1 -91.83)"/><path class="cls-1" d="M289.57,112.64A285.87,285.87,0,0,0,39.8,292.3a295.15,295.15,0,0,0-18.62,79.6c-1.1,11.68-1.1,36.88,0,48.57,5.48,58.06,27,111.37,63.54,155.19,46,55.5,109.54,91.29,180.75,101.51,14.6,2.19,23.37,2.56,40.53,2.56a259.87,259.87,0,0,0,54.41-5.12A287.16,287.16,0,0,0,566.72,512.12a297.61,297.61,0,0,0,24.1-92c1.1-11.68,1.1-36.88,0-48.57A289.91,289.91,0,0,0,577,304.71,284.58,284.58,0,0,0,458.27,155c-50.39-30.68-109.55-46-168.7-42.36Zm22.64,27.75c13.87.73,17.16,1.1,21.18,2.56,5.84,2.19,8.4,5.84,8.4,11.68s-2.2,8.77-7.31,11l-2.55,1.09,2.19.73a15.26,15.26,0,0,1,7.3,6.21c1.46,2.56,1.46,8,0,11.32a12.62,12.62,0,0,1-7.67,7.3c-4.38,1.83-8.76,1.83-24.83,1.1-8-.37-15-.73-15-.73s1.46-37.25,2.19-48.2l.37-4.75H298c.36,0,6.93.37,14.24.73Zm-40.53,4,1.82.73V159l-1.82-.36c-6.58-1.1-11.69-1.46-16.44-.73-4,.73-5.47,1.46-5.47,2.92,0,2.19,1.09,2.56,9.86,3.29a89.2,89.2,0,0,1,10.58,1.46c8,2.55,11.69,7.67,11.32,15.7a14.18,14.18,0,0,1-4.74,10.22c-6.58,6.58-21.91,9.86-34.69,7.67l-2.19-.36-.37-6.58c0-3.65-.36-6.93,0-6.93a21.45,21.45,0,0,1,3.65.36c5.48,1.1,13.88.73,17.53-.36s4.38-1.83,4-3.66c0-1.82-1.46-2.19-9.86-2.92-11.32-1.09-16.07-2.92-19.36-7.67-1.82-2.92-2.55-5.11-2.55-9.49,0-6.21,3.65-11.32,10.22-14.61,2.92-1.46,8.77-2.92,13.15-3.65,3.29,0,13.87.37,15.34,1.1Zm101.87,4.38c4.39,1.46,7.67,2.56,7.67,2.92,0,0-2.19,7.3-5.11,15.34-4.38,12.78-5.11,15.7-5.11,17.89a9.69,9.69,0,0,0,.73,4c1.09,1.82,4.74,3.65,7.67,3.65,1.82,0,2.55,0,3.65-1.46,1.82-1.83,2.55-3.65,8.4-20.45,2.55-8,5.11-14.61,5.11-14.61.36,0,15,4.75,15.33,5.12s-9.85,31-11.68,34.69c-5.84,11.32-18.62,13.87-32.86,7.3-10.23-4.75-14.61-12.42-13.52-21.55.74-3.65,11.32-35.78,12.05-35.78-.36.36,3.29,1.46,7.67,2.92ZM215.44,174.35l-.73,19,4.38,8.4c2.19,4.74,4.38,8.76,4.38,8.76,0,.37-14.24,7.3-14.6,7.3,0,0-2.19-4-4.38-8.76l-4.38-8.76L184.4,189.69c-8.76-5.84-15.7-11-15.7-11,0-.36,14.61-7.67,15.34-7.67.36,0,4,2.56,8,5.85s7.67,5.84,8,6.2.73-1.82.36-9.85V163l8-4c4.39-2.19,8-4,8-3.65-.37,0-.73,8.4-1.1,19Zm231.87,8c8,2.93,17.17,9.5,21.55,16.8l.73,1.46-4.75,3.29c-2.55,1.82-5.11,3.65-5.84,4.38l-1.46,1.1-1.46-2.56c-1.83-3.29-5.84-7.3-9.13-8.76a11.26,11.26,0,0,0-10.22-.37,15.92,15.92,0,0,0-7.31,8A10.8,10.8,0,0,0,428,211.6c0,2.92,0,3.65,1.1,5.47,2.55,4,8,7.31,14.6,8.4,1.83.37,3.29.73,3.29.73s-4.75,13.51-5.11,13.51c-.37.37-6.21-1.46-9.86-2.92-18.62-8.76-25.56-23.37-18.26-38.34,4.38-8.76,11-14.6,19-16.8,3.65-1.09,9.86-.73,14.6.73ZM182.58,214.52c7.67,4.38,13.51,8.4,13.51,8.76,0,0-2.92,2.56-6.21,5.48-4,3.29-6.21,5.11-6.57,4.75a38.11,38.11,0,0,1-4.38-2.56c-2.19-1.1-4-2.19-4-2.19-.37,0-12.42,10.22-13.15,11-.36.37.37,2.19,1.46,5.12,1.47,4,1.83,4.74,1.47,5.11-2.93,2.55-12.05,9.86-12.05,9.86-.37-.37-20.45-51.85-20.09-51.85,0,0,3.65-3.29,8.4-6.94l8-6.58,10.23,6.21c4.74,2.92,15.7,9.13,23.37,13.88Zm309.65,4.38,5.48,6.21-8.4,6.94c-4.75,4-8,6.93-8,7.3,0,0,5.48-.37,12.05-1.1s12.42-1.46,12.79-1.46c1.09,0,2.19,1.1,12.41,13.15.37.36.73.73.37,1.09,0,0-7.31.73-16.07,1.1l-15.7,1.09-.37,1.47c-.36.73-1.82,8-4,15.7-1.83,7.67-3.66,14.24-3.66,14.6-.36.73-1.82-.73-6.57-6.57l-6.21-7.3L470,258.7c1.82-6.94,3.65-12.41,3.28-12.41,0,0-3.65,2.92-8.4,6.57-5.84,5.11-8,6.57-8.76,6.57a68.76,68.76,0,0,1-5.48-6.21l-5.11-5.84,1.1-1.09c1.82-1.46,39.07-33.23,39.07-33.23,1.09-.37,3.65,2.55,6.57,5.84Zm-165,0A184.91,184.91,0,0,1,417,254.69c14.24,10.58,29.21,26.29,39.43,40.53a179.37,179.37,0,0,1,30.68,72.3c2.19,12.05,2.92,17.89,2.92,32.86,0,18.62-1.46,29.58-5.48,46-8.4,32.87-24.83,60.62-49.66,84.72-29.58,28.84-65.73,46-107.72,51.12-9.13,1.09-31.77,1.09-41.26,0-31.77-4-59.89-14.61-85.45-32.5-14.24-9.86-29.94-25.2-40.53-39.07-20.09-26.29-32.14-55.87-36.15-89.83-.73-5.11-.73-9.86-.73-20.45s.36-15.33.73-20.45c3.65-29.57,13.51-56.6,29.21-80.33a152.54,152.54,0,0,1,25.56-30.31C210,239,249,221.46,294.31,217.8c5.12-.36,27,.37,32.87,1.1ZM127.07,248.11c10.23,10.59,18.63,19.36,19,19.72,0,0-1.82,3.65-4.38,7.67-3.29,5.48-4.75,7.3-5.48,7.3-.36,0-8-2.19-16.43-5.11-8.76-2.56-15.7-4.75-16.07-4.75,0,0,5.12,5.85,11.69,12.42,7.67,8,12,12.41,11.68,13.14-.36,1.46-8.39,13.88-9.12,14.24-.37,0-51.49-15.33-52.22-15.7-.37,0,2.92-5.47,7.67-12.78l1.46-2.55,14.6,6.2c8,3.29,15,6.58,15.7,6.58.73.36-4.38-5.12-11-11.69s-12-12.05-12-12.41,9.49-16.07,9.86-16.07l16.43,5.48c10.59,3.65,16.07,5.11,15.34,4.38-.37-.37-6.21-5.48-13.15-11-8.4-6.93-12-10.22-12-10.59.37-1.09,8.4-14.24,8.77-14.24.73.37,9.49,9.13,19.71,19.72ZM528,272.21c7.67,3.65,14.61,16.8,15.71,30.31l.36,3.29-6.21,1.82c-3.65.73-6.57,1.83-6.93,1.83s-.73-1.1-.73-4a43.1,43.1,0,0,0-3.29-13.87c-1.46-3.29-2.56-4-4-4-2.19.36-2.19,2.19-1.09,9.13.36,2.92,1.09,6.94,1.09,8.4.73,5.84-1.46,12.05-4.74,14.6a21.78,21.78,0,0,1-9.13,3.65c-6.94.73-13.88-3.65-18.63-12.05-3.65-6.2-6.93-17.16-6.57-22.64v-2.55l6.21-1.83c3.65-1.09,6.57-1.82,6.57-1.82s.37,2.19.73,5.11c.73,6.21,1.83,10.95,4,15,1.82,3.65,3.28,4.75,5.11,4a3.65,3.65,0,0,0,1.46-1.83c0-.73-.36-4-.73-7.67-1.46-8.4-1.46-13.51,0-17.16,2.56-7.67,12.78-11.68,20.81-7.67ZM66.82,402.94a40.19,40.19,0,0,1,15.7,9.13l1.83,1.82-2.56.73a41.42,41.42,0,0,0-11.31,5.85c-1.47,1.09-2.56,1.82-2.56,1.46a10.08,10.08,0,0,0-1.83-3.29,30.11,30.11,0,0,0-15-11.69c-1.46-.36-2.55-1.09-2.92-1.09-.36-.37,2.19-2.19,4.38-2.92,3.65-1.1,9.13-1.1,14.24,0Zm492.6,0c2.55.73,5.84,2.92,5.11,3.28-.37,0-1.46.73-2.92,1.1-6.57,2.19-12.05,6.21-15,11.68a10.29,10.29,0,0,0-1.83,3.29c0,.37-1.09-.36-2.55-1.46A41.6,41.6,0,0,0,530.94,415l-2.56-.73,1.83-1.83a36.76,36.76,0,0,1,19.71-10.22,27.8,27.8,0,0,1,9.5.73ZM48.57,410.61c7.3,2.55,12,6.2,15,11.68L65,425.21l-2.19,2.56a49.33,49.33,0,0,0-7.67,12.78l-1.46,4L51.12,442c-8.4-8.76-11.68-19.72-8.76-28.48.73-2.19,1.82-4,2.19-4a13.37,13.37,0,0,1,4,1.1Zm520.71,1.09c4.38,8.4.73,20.82-8,30.31l-2.55,2.56-1.46-4c-1.46-4.75-4.75-9.5-7.67-12.78l-2.19-2.19,1.46-2.92a22.85,22.85,0,0,1,9.13-9.5c2.92-1.46,8-3.28,9.13-3.28a2.7,2.7,0,0,1,2.19,1.82ZM98.59,419a28.2,28.2,0,0,1,2.56,1.47c0,1.09-2.92,8.39-4,10.22-2.92,5.11-8.4,8.76-15,10.59A34.71,34.71,0,0,0,71.57,446c-4.38,3.28-6.94,7.3-9.86,15.33l-.36.73-.73-.73c-3.29-4-4.39-11.68-2.56-17.89S63.17,432.15,68.28,427c5.12-4.75,8.77-6.94,14.61-8.77,5.11-1.09,12-1.09,15.7.73Zm430.52-.36c5.84,1.46,10.22,4,15,9.13,5.11,5.11,8.4,10.22,10.23,16.43,1.82,6.57.73,13.88-2.56,17.89l-.73.73-.37-.73c-2.92-8-5.47-12-9.85-15.33-3.29-2.56-6.21-3.66-10.59-4.75a23,23,0,0,1-15-10.59,65,65,0,0,1-4-10.22c0-.37,3.28-2.2,5.11-2.56,3.65-1.46,9.49-1.1,12.78,0ZM107,427.4c6.21,13.15-4.38,32.87-21.18,39.08C81.06,468.3,76,469,72.3,468.3c-3.29-.73-7.67-2.56-7.67-3.29,0-.36.73-2.19,1.46-4.38,1.46-4.38,4-8.76,7.31-10.95,3.28-2.56,4.74-3.29,9.86-4.75a27.33,27.33,0,0,0,11.32-5.48A27.75,27.75,0,0,0,103,427c1.83-4.38,1.83-4.38,4,.36Zm402.77,0a27.66,27.66,0,0,0,8.4,12.42,27.35,27.35,0,0,0,11.31,5.48c5.12,1.46,6.58,2.19,9.86,4.74a30.34,30.34,0,0,1,7.31,11c.73,2.19,1.46,4,1.46,4.38.36.73-4,2.56-7.67,3.29s-9.13,0-13.51-1.83c-9.86-3.65-18.26-12.78-21.55-22.64-1.46-4.38-1.46-11.32-.36-14.61.73-1.82,2.92-5.84,3.29-5.84,0-.36.73,1.46,1.46,3.65ZM440.38,564c1.82,2.92,3.65,5.48,3.65,5.48s-4.38,3.29-9.86,6.94-9.86,6.94-10.22,6.94a35.66,35.66,0,0,0,3.28,5.47s3.29-1.82,7.3-4.38,7.67-5.11,8.4-5.48l1.1-.73,3.29,5.12c1.82,2.92,3.65,5.47,3.65,5.47,0,.37-3.29,2.56-7.67,5.48s-7.67,5.11-8,5.48c-.74.36,2.92,5.84,3.65,5.47.36,0,5.11-3.28,10.22-6.57,5.11-3.65,9.86-6.57,9.86-6.57.37,0,7.3,9.86,7.3,10.59,0,.36-33.59,22.64-34,23-.36,0-29.21-42-29.57-43.45,0-.36,33.23-23.37,34-23.37a52.56,52.56,0,0,1,3.65,5.11Zm-257.8.73c6.57,1.83,15.33,7.3,20.08,12.78,2.92,3.65,4.75,6.21,4.38,6.57s-11.32,8-11.68,8a26.9,26.9,0,0,1-1.46-2.56,26.17,26.17,0,0,0-9.13-8.76,12.52,12.52,0,0,0-10.23-.37c-4.38,1.83-8.39,7.67-9.13,12.42-.36,3.65.37,6.21,3.66,9.13a18.94,18.94,0,0,0,11.32,5.84l3.65.73s-1.1,3.29-2.56,6.94c-2.19,5.11-2.92,6.94-3.28,6.94-1.47,0-8-2.56-11.32-4.39-12-6.57-18.63-15.7-18.63-25.56,0-4.74.73-7.66,3.29-12.41,4.38-8,11-13.88,18.26-16.07,3.28,0,9.49,0,12.78.73Zm216.53,26.66a52.37,52.37,0,0,1,1.83,6.21s-5.48,2.19-11.68,4.38-11.32,4.38-11.32,4.74c0,.73,1.82,5.85,2.19,5.85a48.57,48.57,0,0,0,5.11-1.83c2.55-1.09,6.94-2.55,9.13-3.29l4-1.46,2.2,6.21c1.09,3.29,2.19,6.21,2.19,6.21s-4,1.46-9.13,3.29c-4.75,1.82-9.13,3.28-9.13,3.65-.37.36,1.82,6.2,2.55,6.2.37,0,5.48-1.82,11.69-4.38l11.32-4c.36.36,4.38,11.68,4.38,12,0,.73-38.34,14.6-38.71,14.24s-4.38-11.32-9.49-24.83c-6.94-18.63-9.13-24.47-8.4-24.47.73-.36,37.61-14.24,38-14.24,1.09-.73,2.19,2.19,3.28,5.48Zm-167.6-1.1c9.13,2.19,17.16,8,20.81,15s2.92,16.8-1.09,25.2c-5.85,11.68-17.53,17.16-30.31,14.61-9.5-1.83-18.26-8-21.91-15.34-1.83-3.65-2.19-5.84-2.19-11,0-14.24,9.86-27,22.64-29.21a44.88,44.88,0,0,1,12,.73Zm122.33,14.61a52.21,52.21,0,0,1,.73,6.57l.36,2.56-11.68,1.46c-6.58.73-11.69,1.46-12.05,1.46v3.65c.36,4.38-.73,4,10.95,2.56,4.38-.73,8-1.1,8.4-1.1.36.37,1.46,12.78,1.46,13.15,0,0-4.38.73-9.13,1.46s-9.13,1.09-9.13,1.09.37,4,1.1,8.77,1.09,8.76,1.09,9.13-1.82.73-8,1.82c-4.38.37-8,.73-8,.73-.37-.36-6.94-51.85-6.58-52.22s36.15-4.74,38.71-5.11h1.46l.37,4ZM287,604.5c10.59,1.1,19.36,2.19,19.72,2.19.37.37-.73,12.42-1.1,12.79,0,.36-5.11,0-11.32-.74s-11.32-1.09-11.68-1.09c-.73,0-.73.73-1.1,3.29,0,1.82-.36,3.65,0,3.65,0,0,4.39.73,9.13,1.09s9.13,1.1,9.13,1.1-1.09,12.78-1.46,13.14c0,0-4-.36-8.76-.73s-9.13-.73-9.13-.73c-.37,0-.73,3.66-1.46,8.77-.37,4.74-1.1,8.76-1.1,9.13-.36.36-15.33-1.1-16.06-1.46-.37-.37.73-11,2.19-26.66,2.19-22.28,2.92-25.93,3.28-25.93,0,0,9.13,1.1,19.72,2.19Z" transform="translate(-0.1 -91.83)"/><path class="cls-1" d="M311.11,157.19c0,2.55-.36,4.75,0,4.75,0,0,6.94.36,9.13.36a4.33,4.33,0,0,0,2.92-1.46c1.1-1.1,1.46-1.46,1.46-2.92,0-4-1.46-4.75-9.13-5.11h-4l-.37,4.38Z" transform="translate(-0.1 -91.83)"/><path class="cls-1" d="M310.38,173.62a28.08,28.08,0,0,1-.36,5.11l-.37,2.92h5.84c6.94,0,8.4-.36,9.13-3.28.73-2.19,0-4.38-2.19-5.11-1.09-.74-6.94-1.47-11.68-1.47,0,0-.37.37-.37,1.83Z" transform="translate(-0.1 -91.83)"/><path class="cls-1" d="M148.25,211.23c2.19,5.84,6.94,16.43,7.31,16.43.73-.36,8-6.2,8-6.57,0,0-3.65-2.56-7.67-5.48-4.38-2.92-7.67-4.74-7.67-4.38Z" transform="translate(-0.1 -91.83)"/><path class="cls-3" d="M296.51,228c-1.1,0-4.39.36-7.31.73a174.12,174.12,0,0,0-60.61,17.53,184.65,184.65,0,0,0-48.93,36.15c-26.66,28.48-42,62.44-46,101.14a258,258,0,0,0,0,33.6c4,38.34,19.72,72.3,46,100.78,13.14,14.24,31,27.39,49.29,36.52A178.94,178.94,0,0,0,287,571.64c9.13,1.1,29.21,1.1,38.34,0,37.25-4.38,69.38-18.62,97.5-43.82,15-13.14,29.21-32.13,38.71-50.76,9.13-17.89,15-39.07,17.52-59.88a258,258,0,0,0,0-33.6c-5.11-47.47-27.75-88.73-65.36-118.67-4.75-3.65-16.43-11.69-21.91-14.61a182.85,182.85,0,0,0-67.92-21.54c-4.74-.37-24.1-.73-27.38-.73Zm66.82,48.2c5.84,1.46,10.95,4.75,16.07,10.22,5.47,5.85,8.76,12.78,8.76,18.63,0,6.57-4,10.22-11,10.22-13.87,0-30.3-17.16-29.21-30.31.73-7.3,6.94-10.95,15.34-8.76ZM207,312.38c4,1.1,10.23,4.38,13.88,6.94,3.29,2.55,7.3,5.84,7.67,6.94.36.73-1.83,4-7.31,11.68l-.73,1.1-2.92-2.93c-8.4-8.76-16.43-10.95-24.1-7.66-8.76,4-13.51,16.06-10.59,27.38,1.83,6.94,7.31,15.7,13.51,20.82,2.19,1.82,2.93,2.55,2.56,3.28-.37,2.19-4.75,13.15-5.11,13.15-.73,0-6.21-4-10.23-7.67C173.45,375.55,166.88,362,166.88,350a42.65,42.65,0,0,1,5.84-20.81c2.19-4,9.49-11.32,12.78-13.15,6.94-4.75,14.6-5.84,21.54-3.65Zm56.6,5.48c30.67,10.22,79.61,50.39,114.66,94.57,1.83,2.56,3.65,4.38,3.65,4.75,0,.73-8,4.38-12.78,5.84a75.11,75.11,0,0,1-29.94,3.65c-16.8-1.09-24.83-4.38-28.85-11.68-2.19-4.38-2.92-7.31-3.29-23-.36-11.68-.36-15-1.46-18.62a37.34,37.34,0,0,0-9.12-18.62,58.22,58.22,0,0,0-41.27-20.09l-5.47-.36-.73-2.56c-1.1-3.28-1.83-9.13-1.47-11a6.81,6.81,0,0,1,3.29-4.38c1.46-.37,8.77.36,12.78,1.46Zm-23.37,19.35c9.86,29.21,47.47,75.59,89.83,111,21.91,18.26,43.45,31.4,58.79,36.51l5.84,1.83L392.91,488c-9.5,7.3-24.1,16.07-35.79,21.91-21.91,10.95-40.9,16.07-60.25,16.8-12.41.36-21.91-.73-32.86-4.39-23.74-7.66-45.28-27-57-50a92.21,92.21,0,0,1-9.13-43.46c.37-12.41,2.19-22.27,6.94-35.78a195.2,195.2,0,0,1,16.43-35.79c4.75-8.39,16.8-25.92,17.17-25.56,0-.36.73,2.19,1.82,5.48Zm176.74,4c11.68,5.84,19.72,18.62,23,37.61,1.1,5.84,1.1,23.73.37,30.67a192.38,192.38,0,0,1-5.12,23.74c-5.11,16.06-12.41,28.11-22.63,38.7-5.12,5.11-5.48,5.48-7.67,5.84-5.12.73-13.51-1.46-24.83-7.3-4.39-2.19-7.67-4-7.67-4a30.8,30.8,0,0,1,4.74-1.83,78.61,78.61,0,0,0,18.63-8.76c5.11-3.29,12.41-9.86,14.6-13.15,2.56-3.65.73-8-3.65-8-1.82,0-2.19,0-6.21,4a64.5,64.5,0,0,1-32.13,17.9c-9.13,1.82-7.67,2.19-14.24-2.56-5.84-4-17.89-13.51-21.18-16.8l-1.82-1.46,3.28.37c1.83,0,7.3.36,12.42.36,7.67,0,9.86,0,14.24-1.09,14.24-2.92,27.75-9.5,36.51-17.53a52.48,52.48,0,0,0,10.23-13.51,48.65,48.65,0,0,0,5.11-31c-1.1-6.21-2.19-9.86-6.21-17.89-2.92-6.21-3.65-7.67-4-9.86-.37-3.29.36-4,2.55-5.48,3.29-1.46,7.67-1.09,11.69,1.1Zm-155.56,4c13.51,2.56,26.66,11.69,32.13,22.64,2.93,5.85,3.66,10.23,4,24.1l.37,12-4-4.38a249.53,249.53,0,0,1-27.75-35.42c-4.38-6.57-12-19-12-19.72-.37-.36,4,0,7.3.73Z" transform="translate(-0.1 -91.83)"/><path class="cls-3" d="M354.57,279.88a7.35,7.35,0,0,0-3.29,6.57c0,8.4,8.76,19.72,18.62,24.47,2.92,1.46,3.65,1.46,7.31,1.46s4.38,0,5.47-1.1a7.49,7.49,0,0,0,2.56-6.2c0-8-8-19-17.89-23.74-3.66-1.82-4.75-2.19-7.67-2.19-2.92-.36-3.65-.36-5.11.73Z" transform="translate(-0.1 -91.83)"/><path class="cls-3" d="M196.82,314.57c-4.75.37-9.5,2.92-14.24,7.3a38.53,38.53,0,0,0-11.32,18.63c-1.1,4-1.1,13.87,0,17.89a56.19,56.19,0,0,0,18.26,27.75l2.92,2.56,1.46-4,1.46-4-2.92-2.92c-11-10.59-15.7-23-12.78-34.69,1.82-7.67,6.2-13.51,11.68-16.43,8.76-4.38,17.53-2.56,26.29,5.84l2.56,2.19,2.55-3.28,2.56-3.29-2.56-3.29c-5.47-4.74-12.78-8.76-19-9.85a14.73,14.73,0,0,0-6.94-.37Z" transform="translate(-0.1 -91.83)"/><path class="cls-3" d="M250.86,320.78c-.73,1.09-.73,1.82-.36,4a18.22,18.22,0,0,0,.73,4.75l.73,1.83,4.38.36a63.56,63.56,0,0,1,39.8,17.9c11,10.95,14.24,20.81,14.61,41.62,0,18.26,1.46,23.37,6.93,27,4.39,2.93,10.59,4.75,21.91,5.48a69.8,69.8,0,0,0,35.06-5.84l3.29-1.46-1.47-1.83a364.49,364.49,0,0,0-31.4-35.05c-25.56-25.2-50-44.19-70.84-54.05-8.76-4.38-13.14-5.84-17.89-5.84-4.38,0-4.75,0-5.48,1.1Z" transform="translate(-0.1 -91.83)"/><path class="cls-3" d="M234.43,342c-14.24,20.45-25.93,45.28-30.31,65-3.65,15.34-4,30.31-1.09,43.82C208.5,477.06,229,503,254.88,515.41c13.51,6.2,25.92,9.12,41.63,8.39,15-.36,27.38-3.28,43.45-9.49a219.71,219.71,0,0,0,44.55-24.1c2.55-1.83,2.92-2.19,2.19-2.19a86.86,86.86,0,0,1-13.88-6.21c-41.62-21.54-98.59-75.95-124.51-120.13a150.75,150.75,0,0,1-9.5-18.63,33.5,33.5,0,0,1-1.46-3.65c-.36-.73-1.46.73-2.92,2.56Zm48.93,77.78c11.32,2.92,19,10.22,22.27,21.9a31.67,31.67,0,0,1,1.1,9.86,45.61,45.61,0,0,1-1.1,11c-3.65,13.51-13.87,26.65-26.29,34-8,4.74-18.25,7.3-26.29,6.57a31.44,31.44,0,0,1-13.87-3.65c-14.61-6.94-20.45-24.47-14.24-42.72a61.2,61.2,0,0,1,18.25-25.93c12.42-10.22,27-14.24,40.17-10.95Z" transform="translate(-0.1 -91.83)"/><path class="cls-3" d="M269.85,421.93c-17.16,2.19-34,15-40.9,31.4-5.11,12.41-4.74,25.19,1.46,34.32a26.74,26.74,0,0,0,10.23,8.77c5.47,2.55,9.49,3.65,15.7,3.28,21.18-1.09,40.17-17.16,46.37-38.7a33.22,33.22,0,0,0,1.1-9.86c0-5.48,0-6.57-1.1-9.86C299.06,430,289.2,423,276.79,421.93Zm10.22,10.22c.37.37,0,1.1-.36,2.92-.37,1.46-1.1,4.38-1.46,6.57-.73,4.75-1.83,6.94-4,9.5s-5.48,4.38-10.22,5.11a25.77,25.77,0,0,0-11,3.65c-6.57,4.38-9.86,9.5-11.68,19-1.1,5.84-1.1,5.84-2.56,4-4.75-6.21-4.75-17.53.37-27.39,4-7.67,12.41-16.43,19.71-19.72a48.79,48.79,0,0,1,10.23-3.65c1.83-.73,10.59-.36,10.95,0Zm11,7.67c4.75,7.67,4,19-2.56,29.58-2.92,4.74-9.49,11.68-14.24,14.6-6.94,4.38-14.6,6.57-21.18,6.21-4.38-.37-5.11-.73-4.74-1.46a62.23,62.23,0,0,0,2.55-8.76c.73-4.39,2.19-7.67,4.75-10.23s5.11-3.29,9.13-4c7.3-1.09,10.95-2.92,15.7-7.3,4-4,5.84-7.67,6.94-13.87,1.46-7.67,1.46-8,3.65-4.75Z" transform="translate(-0.1 -91.83)"/><path class="cls-3" d="M266.93,435.8A33.43,33.43,0,0,0,249.77,446c-4.39,4.38-6.21,6.93-8.4,11.68-2.56,5.11-3.29,8-3.29,13.51v4.38l1.1-3.65c3.65-10.59,12-17.16,23.37-18.62,4-.73,7.3-2.19,9.13-4.38s2.55-4,3.28-8.4a34.4,34.4,0,0,0,.73-4.38l.37-1.1h-2.92a12.68,12.68,0,0,0-6.21.73Z" transform="translate(-0.1 -91.83)"/><path class="cls-3" d="M289.93,448.22c0,1.09-1.09,3.65-2.19,5.47-2.19,4.39-7.3,9.86-11.68,12.05-2.92,1.47-8.77,3.29-11.32,3.29-3.29,0-7.67,2.92-9.5,6.21a48.86,48.86,0,0,0-1.46,5.11,39.53,39.53,0,0,0-.73,4.75,4.93,4.93,0,0,0-.36,1.82c0,.73,7.3,0,10.22-1.09a39.15,39.15,0,0,0,15.34-9.13c8.76-8,13.51-19.72,12.41-28.12L290.3,446l-.37,2.19Z" transform="translate(-0.1 -91.83)"/><path class="cls-3" d="M406.78,343.05c-2.19,1.1-1.09,4.38,2.56,11a67.21,67.21,0,0,1,6.21,15.7c1.09,5.48,1.46,16.43,0,21.91-4,18.26-14.61,31.4-32.87,40.17a82.62,82.62,0,0,1-33.59,8l-8,.36,4.75,3.66a99.73,99.73,0,0,0,9.86,7.3c5.48,4,5.84,4,11.32,2.92a64.08,64.08,0,0,0,31.77-17.53c5.11-5.11,6.57-5.84,10.22-5.11a8.06,8.06,0,0,1,5.48,10.95c-.73,1.83-6.57,8-10.95,11.69a76.64,76.64,0,0,1-20.82,12.05l-2.55.73,4.38,2.19c6.57,2.92,13.14,5.11,17.16,5.48l3.29.36,3.65-3.65c15-14.24,24.46-34.32,28.12-58.42a188.19,188.19,0,0,0,1.09-28.12C436,364.6,428,350.36,415.91,344.15c-3.65-1.83-6.94-2.19-9.13-1.1Z" transform="translate(-0.1 -91.83)"/><path class="cls-3" d="M261.82,351.82c7.66,12.78,20.81,31,30.67,41.62l2.19,2.56v-4a103.74,103.74,0,0,0-1.46-17.16c-1.83-6.57-6.21-12.78-12.78-17.89a42.8,42.8,0,0,0-18.62-8.4l-2.19-.37,2.19,3.66Z" transform="translate(-0.1 -91.83)"/><path class="cls-2" d="M57.33,405.49l-1.83.37,2.56,1.46c3.65,1.83,8.76,6.94,11,10.59,0,.36,9.13-4.75,9.13-5.11,0,0-1.46-1.1-3.28-2.56-5.48-3.65-12.78-5.84-17.53-4.75Z" transform="translate(-0.1 -91.83)"/><path class="cls-2" d="M549.19,405.49c-3.28.37-8,2.56-11.68,4.75-1.83,1.1-3.29,2.19-3.29,2.19,0,.37,9.13,5.11,9.13,5.11,1.83-3.65,6.94-8.39,11-10.59,1.82-1.09,2.55-1.46,1.82-1.46h-2.92a7.48,7.48,0,0,0-4,0Z" transform="translate(-0.1 -91.83)"/><path class="cls-2" d="M45.64,415.35c-1.09,3.29-.73,8.77.73,12.78a29.66,29.66,0,0,0,4.75,8.77l1.46,2.19,1.83-4a32,32,0,0,1,4.38-6.94A10.58,10.58,0,0,0,61,424.48c0-1.09-2.19-4-4.75-6.21-1.82-1.82-3.65-2.55-6.2-3.65l-3.66-1.46c-.36,0-.36.73-.73,2.19Z" transform="translate(-0.1 -91.83)"/><path class="cls-2" d="M562.7,414.62a18,18,0,0,0-5.84,3.65c-2.55,2.2-4.75,5.12-4.75,6.21a28.15,28.15,0,0,0,2.2,3.65c1.09,1.83,3.28,4.75,4.38,6.94l1.82,4L562,436.9c4-5.48,5.85-10.23,5.85-15.7,0-3.29-.73-8-1.46-7.67,0-.37-1.83.36-3.66,1.09Z" transform="translate(-0.1 -91.83)"/><path class="cls-2" d="M84.35,421.56c-5.11,1.46-9.49,4-14.24,9.13-4,4-4.75,5.11-6.57,8.76A57.64,57.64,0,0,0,61,445.66c-.36,2.19-.73,9.13,0,9.13.37,0,.73-1.1,1.46-2.56a32.79,32.79,0,0,1,7.67-8.39c2.56-1.83,6.94-3.66,11.32-5.12a27.09,27.09,0,0,0,9.13-4c2.55-1.83,4.75-5.48,6.21-9.13l1.09-2.92-1.09-.37c-2.56-1.46-9.5-1.46-12.42-.73Z" transform="translate(-0.1 -91.83)"/><path class="cls-2" d="M517.79,421.2a6,6,0,0,0-1.83.73l-1.09.36,1.09,2.92c1.46,4,3.66,7.31,6.21,9.13,2.56,2.19,4,2.92,9.13,4,4.38,1.09,8.76,2.92,11.32,5.11a32.66,32.66,0,0,1,7.67,8.4c.73,1.46,1.46,2.55,1.82,2.55s.37-6.57,0-9.12a56.37,56.37,0,0,0-2.55-6.21c-1.83-3.65-2.56-4.75-6.57-8.77-5.12-5.11-9.5-7.66-14.61-9.12-2.92-.37-9.13-.73-10.59,0Z" transform="translate(-0.1 -91.83)"/><path class="cls-2" d="M103.34,434c-2.19,4.38-6.94,8.76-11.69,11.32-2.19,1.09-5.47,2.19-7.3,2.92-1.83.36-4.38,1.09-5.11,1.82a19.71,19.71,0,0,0-9.86,11.69l-1.1,2.92,1.83.36c3.65.73,5.11,1.1,8.4.37,10.59-1.46,20.81-9.86,25.19-20.45,1.46-3.29,2.19-8.4,1.46-11.32l-.36-2.19L103.34,434Z" transform="translate(-0.1 -91.83)"/><path class="cls-2" d="M507.57,433.61c-1.47,11.32,8,25.2,20.81,30.31,5.11,2.19,9.49,2.19,14.61,1.09l1.82-.36-1.09-2.92A20.88,20.88,0,0,0,533.86,450c-.73-.36-2.92-1.09-5.12-1.82a38.77,38.77,0,0,1-7.3-2.92A25.09,25.09,0,0,1,509.76,434l-1.46-2.92-.73,2.55Z" transform="translate(-0.1 -91.83)"/><path class="cls-1" d="M223.47,603.41c-4,1.09-7.3,5.84-9.12,11.68-2.56,8.77,2.19,16.07,10.22,16.07a8.89,8.89,0,0,0,7.3-2.92c4.39-4.38,6.94-13.51,5.12-18.62-1.47-4.39-8-7.67-13.52-6.21Z" transform="translate(-0.1 -91.83)"/></svg>