<svg id="Layer_1" data-name="Layer 1" xmlns="http://www.w3.org/2000/svg" viewBox="0 0 313.7 246.5"><defs><style>.cls-1{fill:#e73338;}</style></defs><path id="Conversation" class="cls-1" d="M306.2,0H127a7.6,7.6,0,0,0-7.5,7.5V59.8H7.5A7.5,7.5,0,0,0,0,67.2V186.7a7.6,7.6,0,0,0,7.5,7.5H37.3V239c0,11.2,10.9,7.1,12.7,5.2l50.1-50h86.6a7.6,7.6,0,0,0,7.5-7.5V134.4H214l49.7,50.1a7.5,7.5,0,0,0,12.7-5.2V134.4h29.8a7.5,7.5,0,0,0,7.5-7.4V7.5A7.6,7.6,0,0,0,306.2,0ZM43.2,102.6H78.3a7.3,7.3,0,0,1,7.2,7.2v.5a7.3,7.3,0,0,1-7.2,7.2H43.2a7.2,7.2,0,0,1-7.2-7.2v-.5A7.2,7.2,0,0,1,43.2,102.6ZM155.4,37.3H280.9a7.2,7.2,0,0,1,7.2,7.2v.4a7.2,7.2,0,0,1-7.2,7.2H155.4a7.2,7.2,0,0,1-7.2-7.2v-.4A7.2,7.2,0,0,1,155.4,37.3Zm2.3,36h76.9a7.2,7.2,0,0,1,7.2,7.2v.4a7.2,7.2,0,0,1-7.2,7.2H157.7a7.2,7.2,0,0,1-7.2-7.2v-.4A7.2,7.2,0,0,1,157.7,73.3ZM43,138.7h86.8a7.2,7.2,0,0,1,7.2,7.2v.5a7.3,7.3,0,0,1-7.2,7.2H43a7.2,7.2,0,0,1-7.2-7.2v-.5A7.2,7.2,0,0,1,43,138.7Zm136.3,40.6H97.1a7.2,7.2,0,0,0-5.2,2.2L52.3,221.1V186.7a7.5,7.5,0,0,0-7.5-7.4H14.9V74.7H119.5V127a7.5,7.5,0,0,0,7.5,7.4h52.3v44.9Zm119.5-59.8H268.9a7.6,7.6,0,0,0-7.5,7.5v34.3l-39.2-39.6a7.8,7.8,0,0,0-5.2-2.2H134.4V14.9H298.8V119.5Z" transform="translate(0 0)"/></svg>