<svg id="Layer_1" data-name="Layer 1" xmlns="http://www.w3.org/2000/svg" viewBox="0 0 545.7 596.7"><defs><style>.cls-1{fill:#e6e6e6;}.cls-2{fill:#3f3d56;}.cls-3{fill:#bd0707;}.cls-4{fill:#2f2e41;}.cls-5{fill:#ccc;}.cls-6{fill:#201e1e;}</style></defs><path class="cls-1" d="M328.6,528.3c-5.1-7.2-12-12.4-20.7-14.4s-15.5-1.4-23.2-1.3l-97.7.7c-8.3.1-16.4,7.3-16,16s7.1,16.1,16,16l85.9-.6,20.2-.2h5.5l2.4.6c-.3,0,.5.5.9.7l.4.6,1.1,2a73.5,73.5,0,0,1,3,9.4c1.8,7,2.3,8.5,2.5,15.1.4,8.4,7.1,16.4,16,16s16.4-7,16-16c-.6-15.1-3.2-32-12.3-44.7Z" transform="translate(0 0)"/><path class="cls-1" d="M192.8,564.4c-1.9-11.1-3.7-22.2-5.5-33.3s-5.8-21.6-14.6-29c-2.3-2-4.8-3.9-7.2-5.7l-2.6-2h-.1l-.4-.3c-3.6-3.1-7.1-6.3-10.5-9.7s-5.9-6.3-8.6-9.6l-2-2.5-1.1-1.4-1.2-1.7-2.3-3.3a156.4,156.4,0,0,1-13.2-24.1c-.4-.8-.7-1.7-1.1-2.5l-.3-1c-.8-2.1-1.5-4.1-2.2-6.2-1.4-4.4-2.7-8.8-3.7-13.3-.5-2.2-1-4.5-1.4-6.7l-.6-3.5c0-.2-.2-1.5-.3-2.2s-.2-1.9-.2-2.1-.3-2.4-.4-3.5c-.2-2.7-.3-5.3-.4-8q-.2-7.1.3-14.1c.2-2.6.4-5.3.7-7.9v-.4c0-.1.1-.3.1-.4s.4-2.9.7-4.4a153.5,153.5,0,0,1,3.7-16.3c.7-2.5,1.5-5.1,2.4-7.6l1.2-3.3a32.1,32.1,0,0,1,1.2-3.1c4.8-11.3,12.6-21.7,12.6-34.5,0-8.7-7.4-17.1-16-16.7a16.7,16.7,0,0,0-16,16.7v.5a6.4,6.4,0,0,1-.2.7c-.9,2-2.1,4-3.1,5.9-2.8,5.5-5.2,11.1-7.5,16.8a156.8,156.8,0,0,0-8.5,28.6,179.8,179.8,0,0,0-1,65c6.2,37.8,26.7,74,55.1,98.4l7.6,6.1,3.1,2.5c.6.3,2.6,2,1.7,1.2,2,1.7,2.8,2.5,3.4,3.8a3.5,3.5,0,0,0,.3,1.2c.3,1.4.7,2.8.9,4.2,2.5,12.5,4.2,25.1,6.3,37.7,1.4,8.6,12,14.2,19.7,11.6s12.7-11.3,11.2-20.5Z" transform="translate(0 0)"/><path class="cls-2" d="M306.8,550.9v20.6a23.5,23.5,0,0,0,46.9,0V537l.6-.2a163.5,163.5,0,0,0,66.5-58.2,160.4,160.4,0,0,0-27.7-207l-.3-.3V200.6A2.3,2.3,0,0,0,389,199l-11.1,11.1V199a2.1,2.1,0,0,0-1.3-2,2.3,2.3,0,0,0-2.4.5l-40.5,40.2-.6-.2c-16.1-5.1-86.5-7.5-102-7.5-4.3,0-8.7.2-13,.5a162.8,162.8,0,0,0-88.3,34.8A159.9,159.9,0,0,0,68.6,391.2a161.5,161.5,0,0,0,83.5,141l.5.3v38.2a23.5,23.5,0,0,0,46.9,0V549.4l1.2.3c16.8,3.1,87.8,3.6,105,1.4l1.1-.2Zm23.4,45.8a25.5,25.5,0,0,1-25.4-25.2V553.2c-19.1,2.1-84.5,1.7-103.3-1.4v18.9a25.5,25.5,0,0,1-50.9,0V533.6a163.4,163.4,0,0,1-84-142.4c0-49.8,22.6-96.3,62-127.5a164.2,164.2,0,0,1,89.3-35.2c4.4-.3,8.9-.5,13.2-.5,15.4,0,84.7,2.4,102,7.4l39.7-39.3a4.2,4.2,0,0,1,7.1,2.9v6.3l7.7-7.7a4.2,4.2,0,0,1,7.2,3v69.8c66.7,60.2,72,163.1,11.9,229.9a164,164,0,0,1-51,38v33.2a25.5,25.5,0,0,1-25.5,25.2Z" transform="translate(0 0)"/><path class="cls-3" d="M194.7,119.1,83.9,152.4a13.9,13.9,0,0,0,8,26.6l96.9-29.1,2.1-.7a66.7,66.7,0,0,1,8.3-29.8,5.3,5.3,0,0,0-2-.5,6.9,6.9,0,0,0-2.5.2Z" transform="translate(0 0)"/><path class="cls-4" d="M90,186.1a7,7,0,0,1-6.6-4.8l-7-20.9a7.1,7.1,0,0,1,4.5-8.9h0L171,121.7a7,7,0,0,1,8.9,4.4h0l6.9,20.9a7,7,0,0,1-4.2,8.8h-.3L92.2,185.7a5.4,5.4,0,0,1-2.2.4Z" transform="translate(0 0)"/><path class="cls-2" d="M258.8,220a68.1,68.1,0,0,1-68-68,27.2,27.2,0,0,1,.1-2.8A68,68,0,1,1,258.8,220Zm0-138a70.1,70.1,0,0,0-70,67.9V152a70,70,0,1,0,70-70Z" transform="translate(0 0)"/><path class="cls-1" d="M317.8,152a59,59,0,0,1-118,0,49.3,49.3,0,0,1,.3-5.5A59,59,0,0,1,317.8,152Z" transform="translate(0 0)"/><path class="cls-3" d="M267.4,168.5a7.9,7.9,0,0,1-4.7,2.4V157.7a14,14,0,0,1,4.7,2.4,4.8,4.8,0,0,1,1.7,3.7,7.3,7.3,0,0,1-1.7,4.7Zm-11.2-21.3a15.6,15.6,0,0,1-5.1-2.7,5.5,5.5,0,0,1-1.7-4.2,6.6,6.6,0,0,1,1.8-4.8,8.7,8.7,0,0,1,5-2.6v14.3Zm20.2,8.7a14.5,14.5,0,0,0-5.5-4.3,60.5,60.5,0,0,0-8.2-2.7V132.8a23.4,23.4,0,0,1,11.7,5.4l3.2-7a19.6,19.6,0,0,0-6.3-3.9,28.5,28.5,0,0,0-8.1-2.1v-8.1h-7.5v8.2a20,20,0,0,0-8.3,2.8,16.1,16.1,0,0,0-5.6,5.4,14.6,14.6,0,0,0-2,7.3,12.6,12.6,0,0,0,2.3,7.8,14.9,14.9,0,0,0,5.7,4.6,58.8,58.8,0,0,0,8.4,2.7v15.4a25,25,0,0,1-13.9-5.5l-3.3,6.9a21.8,21.8,0,0,0,7.4,4.2,32.9,32.9,0,0,0,9.3,2v8h7.5v-8.2a19,19,0,0,0,11.2-5.1,13.4,13.4,0,0,0,4.2-10.1,12.8,12.8,0,0,0-2.2-7.6Z" transform="translate(0 0)"/><path class="cls-4" d="M93.2,270.8a7.2,7.2,0,0,1-6.8-5.2l-3.7-14.3a7,7,0,0,1,5-8.6l118.9-31.4a7,7,0,0,1,8.5,5l3.2,12.1h-.6a160.7,160.7,0,0,0-84.1,31.9h-.1L95,270.5a5.7,5.7,0,0,1-1.8.3Z" transform="translate(0 0)"/><path class="cls-2" d="M73.5,341.3a98.5,98.5,0,0,1-39.1-14.8,94,94,0,0,1-16.2-13.3c-4.8-4.9-9.4-10.5-11.8-17a25.4,25.4,0,0,1,.3-18.8,23.9,23.9,0,0,1,13.2-13.1c6-2.4,13.2-2.7,19-.1a18.3,18.3,0,0,1,7,5.6,11.1,11.1,0,0,1,1.8,3.8,7,7,0,0,1,.1,3.8,8.8,8.8,0,0,1-4.8,5.7,25.4,25.4,0,0,1-8.1,2.5c-2.9.4-7,.7-9.3-1.6a4.6,4.6,0,0,1-1.1-1.6,3.8,3.8,0,0,1-.1-1.5v-.4h0l.2-.4c0,.1-.2.3.1,0a1.8,1.8,0,0,1,.9-.6h1.2c.3.1-.2-.2,0,0s-.2-.2.1,0l.3.4a2.3,2.3,0,1,0,3.3-3.3c-2.3-2.9-6.9-2.2-9.2.3s-1.8,7.9,1.1,10.6,7.9,3.3,12.2,2.8a30.6,30.6,0,0,0,10.2-2.9,15,15,0,0,0,7.1-7.6A13.2,13.2,0,0,0,50.9,269c-3.7-7-11.4-10.6-19.1-11.2A29.9,29.9,0,0,0,10,265,30.1,30.1,0,0,0,.1,285c-.7,8,2.4,15.8,7,22.2a84,84,0,0,0,16.8,17.4,101.9,101.9,0,0,0,42.8,20.2l5.6,1a2.4,2.4,0,0,0,2.9-1.7,2.3,2.3,0,0,0-1.7-2.8Z" transform="translate(0 0)"/><path class="cls-5" d="M296.9,239.4q-30.6-.5-61.1,1.5c-7,.5-13,2.9-13,7.1s6,7.5,13,7q30.4-2,61.1-1.6C313.6,253.7,313.6,239.6,296.9,239.4Z" transform="translate(0 0)"/><path class="cls-2" d="M214.6,245.5c1.4,2.2,20.5,5.2,52.1,5.2s50.7-3,52.1-5.2c-1.4-2.2-20.5-5.3-52.1-5.3S216,243.3,214.6,245.5Zm52.1,7.2c-2.2,0-54.1,0-54.1-7.2s51.9-7.3,54.1-7.3,54.1.1,54.1,7.3-51.9,7.2-54.1,7.2Z" transform="translate(0 0)"/><path class="cls-2" d="M431.3,441.2c11.5-.3,25.8-.7,36.9-8.8a28.1,28.1,0,0,0,11.1-21.1c.2-6.3-2.1-11.9-6.5-15.6s-14.1-6-23.2-3.3l9.4-68.6-6.9-.9-11,80.6,5.7-2.7c6.7-3,15.8-4.6,21.5.2a12.2,12.2,0,0,1,4,10.1,21.1,21.1,0,0,1-8.2,15.7c-8.6,6.3-20,7.1-32.9,7.5l.2,6.9h-.1Z" transform="translate(0 0)"/><polygon class="cls-2" points="374.9 329.7 412.3 329.7 412.3 336.7 374.9 336.7 374.9 329.7"/><path class="cls-4" d="M110.2,302.7a6.9,6.9,0,0,1-6.9-5.9L101,282.2a7,7,0,0,1,5.8-8l121.5-19a6.9,6.9,0,0,1,8,5.8l2.3,14.6a7,7,0,0,1-5.8,8L111.3,302.7Z" transform="translate(0 0)"/><path class="cls-3" d="M59.9,29.9a51,51,0,1,1-51,51A51,51,0,0,1,59.9,29.9Z" transform="translate(0 0)"/><path class="cls-4" d="M88.7,94a10.3,10.3,0,0,0,4.4-2.6,8.2,8.2,0,0,0,2.3-6.5,5.8,5.8,0,0,0-2.5-4.2,7.1,7.1,0,0,0-6.8.1l-.3-19.9h-2l.4,23.4,1.5-1c1.7-1.2,4.3-2,6.1-.9a3.7,3.7,0,0,1,1.6,2.7A6.7,6.7,0,0,1,91.7,90c-2.2,2.1-5.4,2.8-9,3.5l.3,2A26.5,26.5,0,0,0,88.7,94Z" transform="translate(0 0)"/><polygon class="cls-4" points="95.8 61.1 106.4 59.5 106.7 61.4 96.1 63.1 95.8 61.1"/><polygon class="cls-4" points="62.1 66.2 72.8 64.6 73.1 66.5 62.4 68.2 62.1 66.2"/><path class="cls-4" d="M93.6,301.8a9.1,9.1,0,0,1-8.5-5.8L50,201.8A46.5,46.5,0,0,1,77.3,142l28.5-10.7a9.1,9.1,0,0,1,6.9.3,8.6,8.6,0,0,1,4.7,5l65.1,123a8.9,8.9,0,0,1-5.2,11.6h0L96.7,301.3a8.4,8.4,0,0,1-3.1.5Z" transform="translate(0 0)"/><path class="cls-1" d="M97.2,134.6,161.8,221l-43.7-85.5a8.2,8.2,0,0,0-10.4-4.9h0l-10.5,4Z" transform="translate(0 0)"/><path class="cls-3" d="M199.5,200.2,84.1,192.8a14,14,0,0,1-13-14.8,13.9,13.9,0,0,1,14.8-12.9h0l115.4,7.4a6.5,6.5,0,0,1,6.1,6.9h0l-1,14.7a6.5,6.5,0,0,1-6.9,6.1Z" transform="translate(0 0)"/><path class="cls-4" d="M168.7,205h-.5l-94.7-6.1a7.1,7.1,0,0,1-6.6-7.5h0l1.6-25.1a7.1,7.1,0,0,1,7.5-6.6h0l94.7,6.1a7.1,7.1,0,0,1,6.6,7.5l-1.7,25.1a6.7,6.7,0,0,1-4.5,6.1,6.9,6.9,0,0,1-2.4.5Z" transform="translate(0 0)"/><path class="cls-4" d="M59.3,46.9c6.7-5.7,15.9-.6,23.6-1.5S96.1,38,97.6,30.9,95,14.6,88.8,9.5s-16-7.2-24.6-6.2-18.9,5.8-27,11.4A123.6,123.6,0,0,0,15.8,32.8C10,39.2,5.1,46.8,3.6,55.3s-.4,16.4,4.2,23a25.8,25.8,0,0,0,9.5,7.8c3.9,1.9,8.1,3.3,12,5.5,5.7,3.3,11.3,10.1,9.5,17.3a9.7,9.7,0,0,1-2.2,4.1,1.5,1.5,0,0,1-2.3-1.9c2.2-2.5,2.2-5.8.9-8.9A15.8,15.8,0,0,0,28,94.3c-4-2.3-8.4-3.7-12.5-5.8a27.1,27.1,0,0,1-9.9-8.2C.7,73.5-.8,64.6.4,56.4S6.1,39.5,11.8,32.8,25.7,19.2,33.5,13.6,51.1,2.5,61.3.7,79.8.1,87.6,4.9s12.8,12.3,13.3,21A22.3,22.3,0,0,1,90.5,45.8a19,19,0,0,1-11.4,2.7c-4.2-.3-8.5-1.6-12.8-1.3A9.6,9.6,0,0,0,61,49.4c-1.4,1.2-3.2-1.2-1.7-2.5Z" transform="translate(0 0)"/><path class="cls-6" d="M384.6,90H374.4L359.3,63.4V90H349V47.3h10.3l15.1,26.6V47.3h10.2Zm4.8-16.2a18.9,18.9,0,0,1,1.9-8.4,12.7,12.7,0,0,1,5.3-5.7,15.2,15.2,0,0,1,8.1-2c4.7,0,8.5,1.5,11.2,4.4s4.1,6.9,4.1,12v.3c0,5-1.3,8.9-4.1,11.8s-6.5,4.4-11.1,4.4-8.2-1.4-10.9-4.1-4.2-6.4-4.4-11V73.8Zm9.9.6c0,3,.5,5.1,1.4,6.5a4.5,4.5,0,0,0,4.1,2q5.3,0,5.4-8.1v-1c0-5.7-1.9-8.5-5.5-8.5s-5.1,2.5-5.4,7.4v1.7ZM360,162H349.7V119.3H360Zm15.7-31.7.4,3.7a10.5,10.5,0,0,1,9-4.3c3.3,0,5.8,1,7.4,3s2.5,4.9,2.5,8.9V162h-9.9V142a6,6,0,0,0-.9-3.6,4.7,4.7,0,0,0-3.5-1.1,4.9,4.9,0,0,0-4.4,2.3V162h-9.8V130.3ZM413.9,155a4.1,4.1,0,0,0,3.2-1.2,4,4,0,0,0,1.2-3.1h9.2a10.7,10.7,0,0,1-3.7,8.5,13.6,13.6,0,0,1-9.6,3.4c-4.7,0-8.3-1.5-10.9-4.4s-4-6.9-4-12v-.4a20.8,20.8,0,0,1,1.7-8.5,12.8,12.8,0,0,1,5.2-5.6,15.2,15.2,0,0,1,7.9-2c4.1,0,7.4,1.1,9.8,3.4a12.3,12.3,0,0,1,3.6,9.3h-9.2a5.6,5.6,0,0,0-1.2-3.8,4.5,4.5,0,0,0-3.3-1.3c-2.5,0-4,1.6-4.4,4.9a23.9,23.9,0,0,0-.3,4.3q0,4.8,1.2,6.6a4.1,4.1,0,0,0,3.6,1.9Zm16.5-9.2a17.9,17.9,0,0,1,1.9-8.4,12.7,12.7,0,0,1,5.3-5.7,16.2,16.2,0,0,1,8.1-2c4.7,0,8.5,1.5,11.2,4.4s4.1,6.9,4.1,12v.4c0,4.9-1.4,8.8-4.1,11.7s-6.5,4.4-11.1,4.4-8.2-1.4-10.9-4.1-4.2-6.4-4.4-11v-1.7Zm9.9.7a11.9,11.9,0,0,0,1.4,6.4,4.6,4.6,0,0,0,4.1,2.1c3.5,0,5.3-2.8,5.3-8.2v-1c0-5.6-1.8-8.5-5.4-8.5s-5.1,2.5-5.4,7.4v1.8Zm34.4-16.2.3,3.7a11,11,0,0,1,9.1-4.3q6,0,8.1,4.8a10.4,10.4,0,0,1,9.3-4.8q9.6,0,9.9,11.7V162h-9.9V142a6.9,6.9,0,0,0-.8-3.6,3.8,3.8,0,0,0-3-1.1,4.8,4.8,0,0,0-4.4,2.6V162h-9.9V142a7,7,0,0,0-.7-3.6,3.9,3.9,0,0,0-3.1-1.1,4.7,4.7,0,0,0-4.3,2.6V162h-9.9V130.3Zm57.7,32.3a16.2,16.2,0,0,1-11.8-4.4,15.1,15.1,0,0,1-4.5-11.3v-.8a19.4,19.4,0,0,1,1.8-8.6,13.3,13.3,0,0,1,5.2-5.8,16.6,16.6,0,0,1,8.2-2c4.5,0,8,1.4,10.6,4.1s3.8,6.7,3.8,11.6v3.9H526.1a6.8,6.8,0,0,0,7,5.7,8.9,8.9,0,0,0,7.3-3.3l4.5,5.3a12.7,12.7,0,0,1-5.2,4.1,18,18,0,0,1-7.3,1.5Zm-1.1-25.3c-2.9,0-4.6,1.9-5.2,5.8h10v-.8a4.4,4.4,0,0,0-4.8-5Z" transform="translate(0 0)"/><path class="cls-4" d="M383.2,88.5H373L357.8,62V88.5H347.6V45.9h10.2l15.1,26.5V45.9h10.3ZM388,72.4a19.3,19.3,0,0,1,1.8-8.5,14.6,14.6,0,0,1,5.3-5.7,16.9,16.9,0,0,1,8.2-2c4.7,0,8.4,1.5,11.2,4.5s4.1,6.9,4.1,12V73c0,4.9-1.4,8.9-4.1,11.8s-6.5,4.3-11.2,4.3-8.1-1.3-10.8-4-4.3-6.4-4.5-11V72.4Zm9.9.6c0,2.9.4,5.1,1.3,6.5a4.8,4.8,0,0,0,4.1,2q5.3,0,5.4-8.1v-1c0-5.7-1.8-8.5-5.4-8.5s-5.1,2.4-5.4,7.3V73Z" transform="translate(0 0)"/><path class="cls-3" d="M358.5,160.5H348.3V117.9h10.2Zm15.8-31.6.3,3.7a10.7,10.7,0,0,1,9.1-4.3c3.3,0,5.7.9,7.4,2.9s2.4,5,2.5,8.9v20.4h-9.9v-20a5,5,0,0,0-1-3.5c-.6-.7-1.8-1.1-3.5-1.1a4.6,4.6,0,0,0-4.3,2.3v22.3H365V128.9Zm38.2,24.6a4.6,4.6,0,0,0,3.2-1.1,4.2,4.2,0,0,0,1.1-3.2h9.3a11,11,0,0,1-3.8,8.6,14,14,0,0,1-9.6,3.3c-4.6,0-8.2-1.4-10.9-4.3s-4-6.9-4-12v-.4a19,19,0,0,1,1.8-8.5,13.5,13.5,0,0,1,5.1-5.7,15.4,15.4,0,0,1,7.9-1.9c4.1,0,7.4,1.1,9.8,3.4s3.7,5.4,3.7,9.3h-9.3a5.4,5.4,0,0,0-1.2-3.8,4.1,4.1,0,0,0-3.2-1.3c-2.6,0-4.1,1.6-4.5,4.9a41.9,41.9,0,0,0-.2,4.2c0,3.2.4,5.4,1.1,6.7a4.1,4.1,0,0,0,3.7,1.8Zm16.5-9.1a19.3,19.3,0,0,1,1.8-8.5,14.6,14.6,0,0,1,5.3-5.7,16.3,16.3,0,0,1,8.2-1.9c4.7,0,8.4,1.4,11.2,4.4s4.1,6.9,4.1,12v.3c0,5-1.4,8.9-4.1,11.8s-6.5,4.3-11.2,4.3-8.1-1.3-10.9-4-4.2-6.4-4.4-11v-1.7Zm9.9.6c0,2.9.4,5.1,1.3,6.5a4.8,4.8,0,0,0,4.1,2q5.3,0,5.4-8.1v-1c0-5.7-1.8-8.5-5.4-8.5s-5.1,2.4-5.4,7.3V145Zm34.3-16.1.4,3.7a10.6,10.6,0,0,1,9-4.3c4,0,6.7,1.5,8.1,4.7a10.6,10.6,0,0,1,9.4-4.7c6.4,0,9.7,3.8,9.9,11.6v20.6h-9.9v-20a5.4,5.4,0,0,0-.9-3.5c-.5-.8-1.5-1.1-3-1.1a4.5,4.5,0,0,0-4.3,2.6v22H482V140.6a6.4,6.4,0,0,0-.8-3.6c-.5-.8-1.5-1.1-3-1.1a4.6,4.6,0,0,0-4.3,2.6v22H464V128.9Zm57.7,32.2c-4.8,0-8.8-1.4-11.8-4.3a15.1,15.1,0,0,1-4.5-11.3v-.9a19,19,0,0,1,1.8-8.5,13,13,0,0,1,5.3-5.8,15.4,15.4,0,0,1,8.2-2c4.4,0,8,1.3,10.5,4.1s3.9,6.6,3.9,11.6v3.8H524.7A6.7,6.7,0,0,0,527,152a6.9,6.9,0,0,0,4.6,1.5,8.8,8.8,0,0,0,7.3-3.3l4.6,5.4a12.9,12.9,0,0,1-5.3,4,17.7,17.7,0,0,1-7.3,1.5Zm-1.1-25.2q-4.3,0-5.1,5.7h9.9v-.7a4.4,4.4,0,0,0-4.8-5Z" transform="translate(0 0)"/><path class="cls-4" d="M442.9,276l-.2-.7a9.2,9.2,0,0,1-.5-7.2,13.4,13.4,0,0,1,3.6-5.2,14.5,14.5,0,0,0,3.9-4.6,6,6,0,0,0,.2-5.7,6.8,6.8,0,0,0-3.7-3.9c-1.6-.6-3.5-.4-5.8.5a10.3,10.3,0,0,0-4.6,3.3,4.9,4.9,0,0,0-1,3l.2,1.2a11.6,11.6,0,0,1-.4,4.4,3.8,3.8,0,0,1-2.3,2.5,15.1,15.1,0,0,1-5.1.9c-4.2.1-6.8-.8-7.7-2.9a9.4,9.4,0,0,1-.7-3,22.7,22.7,0,0,0-.1-2.8,25.3,25.3,0,0,1,.6-4.2,21.8,21.8,0,0,1,1.8-5.8,25.3,25.3,0,0,1,4.4-5.8,24,24,0,0,1,7.8-5.1c6.5-2.8,12.6-3,18.5-.6a21.7,21.7,0,0,1,12.4,11.9,18.8,18.8,0,0,1,1.7,7.9,15.7,15.7,0,0,1-1.1,6.8,25.4,25.4,0,0,1-5.4,8.4l-1.2,1,.9,2.5a5.1,5.1,0,0,1-.1,2.1,4.3,4.3,0,0,1-1.7,2.4,23.9,23.9,0,0,1-4.1,2.3,17.7,17.7,0,0,1-4.5,1.3,3.5,3.5,0,0,1-2.9-.6,6,6,0,0,1-1.6-1.6,11.3,11.3,0,0,1-1.3-2.7Zm6.7,16.6a4.3,4.3,0,0,1,1.7-3.2,21.8,21.8,0,0,1,5.6-3.2c2.7-1.1,4.9-1.4,6.6-.7s3.3,2.7,4.8,6.2a12.6,12.6,0,0,1,1.4,5.8,4.8,4.8,0,0,1-1.7,3.6,21,21,0,0,1-5.6,3.1,9,9,0,0,1-6.9.7c-1.5-.6-2.8-2.1-3.9-4.7l-.6-1.4a23.5,23.5,0,0,1-1.2-3.3,6.6,6.6,0,0,1-.2-2.9Z" transform="translate(0 0)"/><path class="cls-3" d="M479.9,231.7l-.2-1c-1.4-3.1-1.6-6-.5-8.6a14.1,14.1,0,0,1,4.3-6.2,17.6,17.6,0,0,0,4.6-5.5,7.6,7.6,0,0,0,.3-6.9c-1.1-2.3-2.5-3.9-4.5-4.6s-4.2-.6-6.9.6-4.6,2.4-5.5,3.8a6.9,6.9,0,0,0-1.3,3.7l.3,1.4a14.6,14.6,0,0,1-.5,5.4,4.6,4.6,0,0,1-2.7,2.9,18,18,0,0,1-6.1,1.1c-5.2.2-8.3-1-9.3-3.5a8.6,8.6,0,0,1-.8-3.6c-.1-1.3-.1-2.5-.1-3.4a19.7,19.7,0,0,1,.6-5,29.3,29.3,0,0,1,2.2-6.9,30,30,0,0,1,5.3-7,29.5,29.5,0,0,1,9.3-6.1c7.8-3.4,15.2-3.6,22.3-.7a26.4,26.4,0,0,1,14.9,14.2,25.3,25.3,0,0,1,2,9.5,19.6,19.6,0,0,1-1.4,8.1c-1.9,4.5-4,7.9-6.4,10.1l-1.5,1.3a30.5,30.5,0,0,1,1.1,3,7.2,7.2,0,0,1-.1,2.5,5,5,0,0,1-2.1,2.9,28.8,28.8,0,0,1-4.9,2.7,21.6,21.6,0,0,1-5.3,1.6,4.4,4.4,0,0,1-3.5-.7,7.5,7.5,0,0,1-2-2c-.4-.6-.9-1.7-1.6-3.1Zm8.1,19.8a5.5,5.5,0,0,1,2-3.8c1.3-1.2,3.6-2.4,6.8-3.8s5.9-1.7,7.9-.9,4,3.3,5.8,7.4a17.4,17.4,0,0,1,1.7,7,6.3,6.3,0,0,1-2.2,4.4,30.1,30.1,0,0,1-6.6,3.7c-3.2,1.3-6,1.6-8.3.8s-3.3-2.6-4.6-5.6l-.8-1.8q-1.1-2.5-1.5-3.9a9.6,9.6,0,0,1-.2-3.5Z" transform="translate(0 0)"/></svg>