<svg id="Layer_1" data-name="Layer 1" xmlns="http://www.w3.org/2000/svg" viewBox="0 0 51.2 16.6"><defs><style>.cls-1{fill:#00e8fe;fill-rule:evenodd;}.cls-2{fill:#00649a;}</style></defs><path class="cls-1" d="M2.5,0H48.8c1.3,0,2.4,1.5,2.4,3.2V13.3c0,1.8-1.1,3.3-2.4,3.3H2.5C1.1,16.6,0,15.1,0,13.3V3.2C0,1.5,1.1,0,2.5,0Z" transform="translate(0 0)"/><path class="cls-2" d="M20,8.6a4.6,4.6,0,0,1-.5,2.1,2.6,2.6,0,0,1-1.2,1.5,3.5,3.5,0,0,1-1.8.5,3.4,3.4,0,0,1-1.7-.5,3.5,3.5,0,0,1-1.3-1.4,7.8,7.8,0,0,1-.4-2.2V8a5.4,5.4,0,0,1,.4-2.2,3.3,3.3,0,0,1,1.2-1.4,4.1,4.1,0,0,1,1.8-.5,3.5,3.5,0,0,1,1.8.5,2.4,2.4,0,0,1,1.2,1.4A5.4,5.4,0,0,1,20,8v.6ZM18.8,8a3.7,3.7,0,0,0-.6-2.3,1.8,1.8,0,0,0-1.7-.8,1.7,1.7,0,0,0-1.6.8,3.1,3.1,0,0,0-.7,2.2v.7a4.1,4.1,0,0,0,.6,2.3,2.3,2.3,0,0,0,1.7.8,2,2,0,0,0,1.7-.8,3.7,3.7,0,0,0,.6-2.3V8Zm8.6-3.1H24.6v7.6H23.5V4.9H20.8V4h6.6Zm3.2,5V11l.3-1,1.7-6h.9l1.7,6,.2,1,.2-1.2L37,4h1.1l-2,8.5H35L33.3,6.3V5.7l-.2.6-1.8,6.2h-1L28.1,4h1.1l1.4,5.9Z" transform="translate(0 0)"/></svg>