<svg id="Layer_1" data-name="Layer 1" xmlns="http://www.w3.org/2000/svg" viewBox="0 0 16.9 30"><defs><style>.cls-1{fill:#bd0707;}</style></defs><path class="cls-1" d="M0,7.5V26.7A3.3,3.3,0,0,0,3.3,30H13.6a3.3,3.3,0,0,0,3.3-3.3V7.5a3.3,3.3,0,0,0-2.8-3.2V3.7a.4.4,0,0,0,.4-.4V.5a.5.5,0,0,0-.4-.5H2.8a.5.5,0,0,0-.5.5V3.3c0,.2.3.4.5.4v.6A3.2,3.2,0,0,0,0,7.5ZM3.3.9H13.6V2.8H3.3ZM15.5,28.1a.5.5,0,0,0-.5-.4h0a.5.5,0,0,0-.5.4.5.5,0,0,0,.5.5,2.4,2.4,0,0,1-1.4.5H3.3A2.4,2.4,0,0,1,.9,26.7V8.4h15V26.7A2.3,2.3,0,0,1,15.5,28.1Zm.4-20.6H.9A2.3,2.3,0,0,1,3.3,5.2H13.6A2.3,2.3,0,0,1,15.9,7.5ZM13.1,4.2H3.7V3.8h9.4Z" transform="translate(0 0)"/><path class="cls-1" d="M13.1,12.2H3.7a.5.5,0,0,0-.4.5V23a.4.4,0,0,0,.4.4h9.4a.5.5,0,0,0,.5-.4V12.7A.5.5,0,0,0,13.1,12.2Zm-.4,10.3H4.2V13.1h8.5Z" transform="translate(0 0)"/><path class="cls-1" d="M1.9,25.8h0a.5.5,0,0,0-.5.5.5.5,0,0,0,.5.4.4.4,0,0,0,.4-.4A.5.5,0,0,0,1.9,25.8Z" transform="translate(0 0)"/><path class="cls-1" d="M3.7,27.7h0a.4.4,0,0,0-.4.4.5.5,0,0,0,.4.5.5.5,0,0,0,.5-.5A.5.5,0,0,0,3.7,27.7Z" transform="translate(0 0)"/><path class="cls-1" d="M1.9,22h0a.5.5,0,1,0,0,1,.5.5,0,0,0,0-1Z" transform="translate(0 0)"/><path class="cls-1" d="M3.7,23.9h0a.5.5,0,0,0-.4.5.4.4,0,0,0,.4.4.5.5,0,0,0,.5-.4A.5.5,0,0,0,3.7,23.9Z" transform="translate(0 0)"/><path class="cls-1" d="M5.6,25.8h0a.5.5,0,0,0-.4.5.4.4,0,0,0,.4.4.5.5,0,0,0,.5-.4A.5.5,0,0,0,5.6,25.8Z" transform="translate(0 0)"/><path class="cls-1" d="M7.5,27.7h0a.5.5,0,0,0-.5.4.5.5,0,0,0,1,0A.5.5,0,0,0,7.5,27.7Z" transform="translate(0 0)"/><path class="cls-1" d="M1.9,18.3h0a.5.5,0,0,0-.5.5.5.5,0,0,0,.5.4.4.4,0,0,0,.4-.4A.5.5,0,0,0,1.9,18.3Z" transform="translate(0 0)"/><path class="cls-1" d="M7.5,23.9h0a.5.5,0,0,0-.5.5.5.5,0,0,0,.5.4.5.5,0,0,0,.5-.4A.5.5,0,0,0,7.5,23.9Z" transform="translate(0 0)"/><path class="cls-1" d="M9.4,25.8h0a.5.5,0,0,0-.5.5.5.5,0,0,0,.5.4.4.4,0,0,0,.4-.4A.5.5,0,0,0,9.4,25.8Z" transform="translate(0 0)"/><path class="cls-1" d="M11.2,27.7h0a.4.4,0,0,0-.4.4.5.5,0,0,0,.4.5.5.5,0,0,0,.5-.5A.5.5,0,0,0,11.2,27.7Z" transform="translate(0 0)"/><path class="cls-1" d="M1.9,14.5h0a.5.5,0,1,0,0,1,.5.5,0,0,0,0-1Z" transform="translate(0 0)"/><path class="cls-1" d="M11.2,23.9h0a.5.5,0,0,0-.4.5.4.4,0,0,0,.4.4.5.5,0,0,0,.5-.4A.5.5,0,0,0,11.2,23.9Z" transform="translate(0 0)"/><path class="cls-1" d="M13.1,25.8h0a.5.5,0,0,0-.5.5c0,.2.3.4.5.4a.5.5,0,0,0,.5-.4A.5.5,0,0,0,13.1,25.8Z" transform="translate(0 0)"/><path class="cls-1" d="M1.9,10.8h0a.5.5,0,0,0-.5.5.5.5,0,0,0,.5.4.4.4,0,0,0,.4-.4A.5.5,0,0,0,1.9,10.8Z" transform="translate(0 0)"/><path class="cls-1" d="M15,23.9h0a.5.5,0,0,0-.5.5.5.5,0,0,0,1,0A.5.5,0,0,0,15,23.9Z" transform="translate(0 0)"/><path class="cls-1" d="M3.7,9.8a.5.5,0,0,0,.5-.4.5.5,0,0,0-.5-.5h0a.5.5,0,0,0-.4.5A.4.4,0,0,0,3.7,9.8Z" transform="translate(0 0)"/><path class="cls-1" d="M5.6,11.7a.5.5,0,0,0,.5-.4.5.5,0,0,0-.5-.5h0a.5.5,0,0,0-.4.5A.4.4,0,0,0,5.6,11.7Z" transform="translate(0 0)"/><path class="cls-1" d="M15,20.2h0a.5.5,0,0,0-.5.4.5.5,0,0,0,1,0A.5.5,0,0,0,15,20.2Z" transform="translate(0 0)"/><path class="cls-1" d="M7.5,9.8A.5.5,0,0,0,8,9.4a.5.5,0,0,0-.5-.5h0a.5.5,0,0,0-.5.5A.5.5,0,0,0,7.5,9.8Z" transform="translate(0 0)"/><path class="cls-1" d="M9.4,11.7a.4.4,0,0,0,.4-.4.5.5,0,0,0-.4-.5h0a.5.5,0,0,0-.5.5A.5.5,0,0,0,9.4,11.7Z" transform="translate(0 0)"/><path class="cls-1" d="M15,16.4h0a.5.5,0,0,0-.5.5.5.5,0,0,0,1,0A.5.5,0,0,0,15,16.4Z" transform="translate(0 0)"/><path class="cls-1" d="M11.2,9.8a.5.5,0,0,0,.5-.4.5.5,0,0,0-.5-.5h0a.5.5,0,0,0-.4.5A.4.4,0,0,0,11.2,9.8Z" transform="translate(0 0)"/><path class="cls-1" d="M13.1,11.7a.5.5,0,0,0,.5-.4.5.5,0,0,0-.5-.5h0a.5.5,0,0,0-.5.5C12.6,11.5,12.9,11.7,13.1,11.7Z" transform="translate(0 0)"/><path class="cls-1" d="M15,12.7h0a.5.5,0,0,0-.5.4.5.5,0,1,0,1,0A.5.5,0,0,0,15,12.7Z" transform="translate(0 0)"/><path class="cls-1" d="M15,8.9h0a.5.5,0,0,0-.5.5.5.5,0,0,0,1,0A.5.5,0,0,0,15,8.9Z" transform="translate(0 0)"/><path class="cls-1" d="M5.2,17h0L8,21.8l.4.2.4-.2,2.8-4.7h.1v-.2a1.7,1.7,0,0,0-1.4-1.7,1.9,1.9,0,0,0-1.9-1.5,1.8,1.8,0,0,0-1.8,1.5,1.8,1.8,0,0,0-1.4,1.8h0Zm3.2,3.7-2-3.4h4Zm2.2-4.3H9a1,1,0,0,1,.8-.5.8.8,0,0,1,.8.5ZM8.4,14.5a1.1,1.1,0,0,1,.9.6,2.4,2.4,0,0,0-.9.6,1.6,1.6,0,0,0-.8-.6A.9.9,0,0,1,8.4,14.5ZM7,15.9a.8.8,0,0,1,.8.5H6.2A1,1,0,0,1,7,15.9Z" transform="translate(0 0)"/></svg>