<?xml version="1.0" encoding="UTF-8"?>
<!DOCTYPE svg PUBLIC "-//W3C//DTD SVG 1.1//EN" "http://www.w3.org/Graphics/SVG/1.1/DTD/svg11.dtd">
<!-- Creator: CorelDRAW 2021 (64-Bit) -->
<svg xmlns="http://www.w3.org/2000/svg" xml:space="preserve" width="2.5in" height="2.5in" version="1.1" style="shape-rendering:geometricPrecision; text-rendering:geometricPrecision; image-rendering:optimizeQuality; fill-rule:evenodd; clip-rule:evenodd"
viewBox="0 0 2500 2500"
 xmlns:xlink="http://www.w3.org/1999/xlink"
 xmlns:xodm="http://www.corel.com/coreldraw/odm/2003">
 <defs>
  <style type="text/css">
   <![CDATA[
    .fil0 {fill:none}
    .fil1 {fill:#ED3237;fill-rule:nonzero}
   ]]>
  </style>
 </defs>
 <g id="Layer_x0020_1">
  <metadata id="CorelCorpID_0Corel-Layer"/>
  <g id="_2140009015440">
   <rect class="fil0" y="-0" width="2500" height="2500"/>
   <path class="fil1" d="M1679.27 180.65c-20.47,11.96 -30.48,31.09 -30.48,58.21 0,75.34 76.17,175 166.38,216.88 25.25,11.56 31.68,12.76 64.96,13.16 33.68,0 37.69,-0.8 47.3,-9.98 16.44,-15.13 22.07,-29.09 22.07,-55 0,-72.17 -71.37,-167.85 -157.98,-210.5 -30.88,-15.16 -41.31,-18.33 -66.56,-19.94 -26.45,-1.6 -32.08,-0.8 -45.69,7.18z"/>
   <path class="fil1" d="M281.57 489.6c-43.69,4.81 -84.61,25.92 -125.09,64.22 -52.12,49.43 -84.6,102.06 -101.82,164.24 -10.04,36.27 -10.43,123.57 -0.43,159.47 26.07,94.08 83,180.2 162.8,245.99l26.05 21.11 13.24 -36.67 13.24 -36.67 -27.28 -26.31c-97.02,-92.51 -138.33,-204.92 -113.46,-308.58 16.44,-67.76 54.13,-120 104.22,-145.11 77,-38.27 154.77,-21.54 233.37,50.23l22.85 20.71 21.24 -30.69 21.24 -30.69 -22.04 -19.54c-47.72,-42.65 -113.06,-77.34 -167.19,-88.5 -26.47,-5.98 -33.68,-5.98 -60.96,-3.2z"/>
   <path class="fil1" d="M760.7 544.24c-5.6,8.38 -6.41,15.56 -4.4,35.5 1.2,13.93 4.8,33.07 7.61,43.05l5.23 17.54 37.69 2.4c131.1,8.35 259.79,66.16 352.83,159.07 97.42,96.48 127.9,184.98 128.3,368.77 0.4,160.67 12.41,207.32 62.13,241.19 38.89,26.72 95.04,40.67 193.26,47.85 112.25,8.38 215.7,-8.38 311.12,-51.43l27.67 -12.36 -13.24 -16.74c-78.97,-100.89 -165.18,-196.57 -279.84,-310.18 -226.94,-224.86 -444.24,-391.11 -627.89,-480.41 -78.97,-38.27 -115.06,-50.23 -158.75,-52.63 -34.08,-1.98 -34.91,-1.98 -41.72,8.38z"/>
   <path class="fil1" d="M613.56 732.8c-126.69,180.2 -230.54,402.29 -269.43,576.09 -30.88,136.76 -34.08,269.11 -10.04,387.93 47.72,234.41 230.94,461.67 461.09,572.09 118.29,56.61 231.34,79.35 370.48,74.57 131.5,-4.8 244.15,-29.52 386.89,-85.33 127.12,-49.83 281.87,-133.55 396.55,-214.1 21.24,-15.13 24.45,-18.74 18.04,-20.71 -35.28,-12.36 -76.2,-30.29 -123.89,-55.04 -370.07,-189.76 -873.25,-674.94 -1105.79,-1065.65 -31.28,-52.63 -69.37,-127.18 -85.01,-166.65 -6,-15.56 -12.04,-29.49 -14.04,-31.09 -1.6,-2 -12.84,10.76 -24.85,27.89zm433.81 691.31c99.84,25.51 168.01,92.1 197.26,193.76 7.63,25.91 9.24,40.28 8.83,86.9 0,47.45 -2,61.81 -10.83,95.7 -32.48,120.4 -122.29,236.02 -233.75,300.2 -70.57,40.65 -160.37,63.39 -233.74,59.38 -48.92,-2.78 -77.4,-10.35 -123.89,-33.09 -128.69,-62.59 -180.02,-216.48 -126.69,-378.72 27.65,-85.33 89.41,-172.23 161.58,-228.86 115.06,-90.07 245.38,-124.37 361.24,-95.28z"/>
   <path class="fil1" d="M926.68 1443.64c-151.14,18.36 -299.88,132.78 -362.84,279.49 -46.92,110.04 -42.09,223.26 12.84,303.78 24.44,35.5 47.69,55.04 91.81,76.94 48.12,23.52 83.8,31.09 138.33,28.32 188.02,-9.98 357.64,-152.29 409.76,-343.68 7.2,-25.89 8.81,-42.65 8.81,-87.7 -0.4,-49.43 -1.6,-59.39 -10.83,-88.1 -33.26,-100.46 -118.66,-163.05 -231.32,-170.25 -16.44,-1.17 -42.11,-0.37 -56.55,1.2zm92.64 90.1c2.4,2.4 1.2,11.19 -4.43,25.52 -4.8,11.96 -11.21,37.87 -14.41,57.81 -6.83,41.87 -14.84,61.81 -34.48,83.72 -20.84,23.91 -48.92,37.47 -92.24,44.25 -48.5,7.58 -69.34,14.76 -98.62,33.5 -59.73,38.27 -88.21,84.93 -102.25,167.05 -8.81,50.23 -10.41,52.63 -24.05,35.07 -42.89,-55.81 -42.11,-155.46 2,-241.99 34.88,-68.96 109.45,-144.71 174.01,-176.2 22.85,-11.56 64.13,-25.52 90.61,-31.09 22.85,-4.41 98.22,-3.2 103.85,2.37zm95.41 68.19c42.89,68.17 34.88,167.05 -21.65,261.13 -24.87,41.45 -85,102.86 -126.69,129.98 -60.96,39.44 -130.32,59.78 -187.65,55.41 -37.69,-2.8 -45.69,-5.58 -41.69,-14.36 10.01,-22.34 17.64,-50.23 21.24,-78.15 5.61,-39.48 19.24,-67.76 42.92,-89.7 23.25,-21.11 44.89,-30.69 82.18,-35.87 64.13,-9.18 97.84,-24.71 138.33,-65.39 36.08,-35.87 51.72,-66.96 61.73,-123.97 12.04,-66.99 12.84,-68.19 31.28,-39.07z"/>
   <path class="fil1" d="M903.03 1563.67c-60.53,15.53 -106.25,42.65 -153.57,90.48 -38.48,38.67 -55.72,61.81 -75.37,102.48 -21.24,43.85 -27.65,71.74 -27.65,119.6l0.4 39.85 10.81 -31.89c32.08,-92.88 106.25,-151.89 208.1,-165.85 36.89,-5.18 64.16,-17.93 80.98,-38.27 14.84,-17.93 22.07,-37.07 28.07,-74.94 2.4,-15.54 5.61,-32.7 6.81,-39.07l2.43 -10.76 -25.28 0.4c-14.04,0 -39.29,3.57 -55.73,7.98z"/>
   <path class="fil1" d="M1105.9 1673.68c-1.6,9.58 -10.01,31.52 -18.84,49.46 -19.64,40.25 -64.13,86.5 -102.62,106.44 -26.88,13.96 -78.2,28.69 -101.05,28.69 -30.08,0.43 -69.37,26.31 -85.01,56.63 -4,8.35 -9.61,28.29 -11.63,44.65 -2.4,15.93 -6.01,35.47 -8.01,42.65 -2.4,7.58 -4,15.16 -4,17.13 0,5.98 64.96,-0.8 92.21,-9.96 52.93,-17.13 93.01,-41.47 136.73,-82.12 77.37,-72.57 121.06,-173.83 108.65,-250.37l-3.23 -19.93 -3.2 16.73z"/>
   <path class="fil1" d="M2143.15 742.78c-18.04,8.78 -10.83,39.07 22.05,96.48 23.65,40.68 42.09,88.5 54.13,139.93 11.21,49.03 12.04,144.33 1.2,193.37 -35.28,162.24 -131.1,278.66 -293.1,357.21 -96.22,46.25 -189.63,68.57 -299.48,72.17l-71.37 2.37 42.49 33.5c23.65,18.33 62.56,47.83 86.61,64.99 49.32,35.47 51.32,35.87 99.42,25.92 105.05,-21.94 200.49,-74.57 283.07,-156.3 45.32,-44.25 59.35,-51.03 91.44,-44.25 42.49,9.18 66.14,55.83 48.89,96.88 -7.2,16.74 -58.93,70.97 -98.62,102.86 -54.93,43.85 -130.32,87.3 -184.45,106.06l-22.04 7.56 40.09 18.74c57.35,26.72 117.89,46.25 152.77,48.65l29.28 2.37 32.85 -31.49c131.93,-127.17 217.33,-305.38 248.19,-518.28 10.83,-72.94 14.44,-188.96 8.43,-250.78 -17.64,-177 -86.61,-305.78 -193.26,-358.81 -29.28,-14.73 -59.73,-18.33 -78.57,-9.15z"/>
   <path class="fil1" d="M856.11 821.33c67.36,114.42 184.85,273.89 272.66,370.77l18.84 21.11 0 -37.07c0,-51.43 -6.83,-123.57 -14.44,-152.29 -14.84,-57.81 -56.13,-114.42 -114.26,-157.87 -49.72,-37.47 -111.48,-65.79 -164.41,-75.34l-18.84 -3.6 20.44 34.3z"/>
  </g>
 </g>
</svg>
